<svg width="27" height="25" viewBox="0 0 27 25" fill="none" xmlns="http://www.w3.org/2000/svg">
<path d="M1.9809 24.3304H21.8934C22.4214 24.3298 22.9501 24.1211 23.3635 23.7499C23.7769 23.3788 24.0412 22.8755 24.0983 22.3506L26.2351 2.55306C26.2912 2.02815 26.1355 1.5249 25.8023 1.15373C25.469 0.782569 24.9854 0.573822 24.4575 0.573303H4.54496C4.01695 0.573822 3.48824 0.782569 3.07487 1.15373C2.66149 1.5249 2.39721 2.02815 2.34004 2.55306L0.203321 22.3506C0.14719 22.8755 0.302833 23.3788 0.636094 23.7499C0.969354 24.1211 1.453 24.3298 1.9809 24.3304ZM8.52402 17.3529C8.44146 17.261 8.37988 17.1519 8.34279 17.0318C8.30571 16.9117 8.29384 16.783 8.30787 16.653C8.3219 16.523 8.36155 16.3943 8.42456 16.2742C8.48757 16.1541 8.5727 16.045 8.67509 15.9531L11.4708 13.4417H3.91746C3.6534 13.4417 3.41142 13.3374 3.24473 13.1518C3.07805 12.9661 3.00033 12.7144 3.02867 12.4518C3.057 12.1893 3.18907 11.9375 3.39582 11.7519C3.60258 11.5662 3.86707 11.462 4.13113 11.462H11.6839L9.43066 8.95246C9.26434 8.76677 9.18689 8.51513 9.21534 8.2528C9.2438 7.99048 9.37582 7.73895 9.58241 7.55346C9.78899 7.36797 10.0532 7.2637 10.3171 7.26356C10.581 7.26342 10.8228 7.36742 10.9896 7.55271L14.7589 11.7507C14.9255 11.9369 15.0032 12.189 14.9748 12.4518C14.9464 12.7147 14.8144 12.9668 14.6076 13.1529L9.9319 17.3529C9.82955 17.4448 9.71194 17.5178 9.58578 17.5675C9.45963 17.6173 9.3274 17.6429 9.19666 17.6429C9.06592 17.6429 8.93922 17.6173 8.8238 17.5675C8.70839 17.5178 8.60652 17.4448 8.52402 17.3529Z" fill="white"/>
</svg>
