<svg width="37" height="41" viewBox="0 0 37 41" fill="none" xmlns="http://www.w3.org/2000/svg">
<path d="M29.5135 8.6673L25.6418 9.12555L23.7867 6.47713C23.6872 6.33512 23.5511 6.22514 23.3904 6.15695C23.2297 6.08876 23.0494 6.06447 22.8655 6.08624L13.9278 7.14408C13.7439 7.16584 13.5621 7.23299 13.3985 7.33957C13.2349 7.44614 13.0946 7.58884 12.99 7.755L11.0396 10.8538L7.16949 11.3119C6.28088 11.4181 5.42308 11.8748 4.78426 12.5818C4.14544 13.2888 3.77778 14.1883 3.76193 15.0831L3.50079 30.831C3.48697 31.7255 3.82619 32.5414 4.44403 33.0997C5.06187 33.6579 5.90787 33.9129 6.79644 33.8088L29.1405 31.1642C30.0291 31.058 30.8869 30.6013 31.5257 29.8943C32.1645 29.1873 32.5322 28.2878 32.548 27.393L32.8092 11.6451C32.823 10.7506 32.4838 9.9347 31.8659 9.37644C31.2481 8.81818 30.4021 8.56315 29.5135 8.6673ZM23.1917 20.0806C23.1751 21.0817 22.864 22.0953 22.2978 22.9931C21.7316 23.8909 20.9357 24.6326 20.0107 25.1244C19.0857 25.6163 18.0732 25.8361 17.1012 25.7563C16.1292 25.6764 15.2414 25.3003 14.55 24.6756C13.8587 24.0509 13.3948 23.2057 13.2171 22.2467C13.0394 21.2878 13.1559 20.2583 13.5517 19.2883C13.9476 18.3183 14.605 17.4515 15.441 16.7975C16.277 16.1434 17.2539 15.7315 18.2482 15.6138C19.5811 15.4576 20.8501 15.8401 21.7769 16.6775C22.7037 17.5149 23.2125 18.7388 23.1917 20.0806Z" fill="#FFE500"/>
<path fill-rule="evenodd" clip-rule="evenodd" d="M24.6644 15.4474L24.4669 13.4615L26.4531 13.2264L26.2556 11.2406L28.2417 11.0055L28.4392 12.9914L30.4254 12.7563L30.6228 14.7422L28.6367 14.9772L28.8342 16.9631L26.848 17.1982L26.6506 15.2123L24.6644 15.4474Z" fill="#049840"/>
</svg>
