<svg width="26" height="25" viewBox="0 0 26 25" fill="none" xmlns="http://www.w3.org/2000/svg">
<path d="M25.9339 8.16857C25.9919 7.66515 25.8542 7.18252 25.551 6.82654C25.2478 6.47057 24.8038 6.27033 24.3166 6.26976H20.6404L21.0819 2.47212C21.1398 1.9687 21.0021 1.48606 20.6989 1.13009C20.3957 0.774117 19.9518 0.573879 19.4645 0.573303H4.75994C4.27256 0.573879 3.78209 0.774117 3.39613 1.13009C3.01017 1.48606 2.76024 1.9687 2.70117 2.47212L0.9355 17.6627C0.91466 17.8419 0.943368 18.0175 1.0183 18.1691C1.09324 18.3207 1.21134 18.4422 1.35894 18.5194C1.50655 18.5967 1.67762 18.6265 1.85238 18.6056C2.02715 18.5846 2.19845 18.5137 2.34648 18.401L6.75388 15.0458L6.33947 18.6121C6.28151 19.1155 6.41925 19.5981 6.72245 19.9541C7.02566 20.3101 7.46958 20.5103 7.95683 20.5109H18.7081L22.5858 24.0974C22.7076 24.2101 22.8624 24.2811 23.0323 24.302C23.2022 24.323 23.3802 24.2931 23.5458 24.2159C23.7113 24.1386 23.8577 24.0172 23.9679 23.8656C24.078 23.714 24.1476 23.5384 24.1684 23.3591L25.9339 8.16857ZM19.8071 18.8232C19.6594 18.6866 19.4642 18.6121 19.2539 18.6121H8.17754L8.61884 14.8144H17.8092C18.2966 14.8139 18.787 14.6136 19.173 14.2577C19.559 13.9017 19.8089 13.419 19.868 12.9156L20.4197 8.16857H24.0959L22.5614 21.3707L19.8071 18.8232Z" fill="white"/>
</svg>
