<svg width="90" height="60" viewBox="0 0 90 60" fill="none" xmlns="http://www.w3.org/2000/svg">
<path d="M90 0H0V60H90V0Z" fill="#0C592E"/>
<path d="M68.2805 43.8906H69.569V46.9984H70.6302V43.8906H71.9188V42.8674H68.2426V43.8906H68.2805ZM23.3319 46.0509C22.6876 46.0509 22.2328 45.5961 22.2328 44.9139C22.2328 44.2317 22.6876 43.7769 23.3319 43.7769C23.7488 43.7769 24.1278 44.0043 24.2794 44.3454L25.189 43.8148C24.8479 43.1705 24.1278 42.7537 23.3319 42.7537C22.0812 42.7537 21.1337 43.7011 21.1337 44.9518C21.1337 46.2025 22.0812 47.15 23.3319 47.15C24.1278 47.15 24.8479 46.7331 25.189 46.0888L24.2794 45.5203C24.0899 45.8614 23.7488 46.0509 23.3319 46.0509ZM27.5766 45.634L26.4775 42.8295H25.3406L27.0081 46.9226C26.8186 47.4532 26.5154 47.6427 25.9469 47.6427V48.628C26.9323 48.7038 27.6903 48.1733 28.1451 46.9605L29.6611 42.8295H28.5241L27.5766 45.634ZM30.1538 46.9984H31.2149V43.8527H32.8825V46.9984H33.9437V42.8295H30.1538V46.9984ZM36.7482 42.7158C35.4597 42.7158 34.5501 43.6632 34.5501 44.9139C34.5501 46.1646 35.4218 47.1121 36.824 47.1121C37.6199 47.1121 38.2263 46.771 38.6432 46.2404L37.7715 45.7098C37.582 45.9372 37.2409 46.1267 36.824 46.1267C36.2556 46.1267 35.8008 45.8993 35.6492 45.3308H38.7948C38.8327 45.1792 38.8327 45.0655 38.8327 44.876C38.8327 43.7011 37.961 42.7158 36.7482 42.7158ZM35.6492 44.5349C35.7629 44.0043 36.1798 43.7011 36.7482 43.7011C37.203 43.7011 37.6578 43.9285 37.7715 44.5349H35.6492ZM41.8267 42.7158C41.2204 42.7158 40.7656 42.9431 40.5003 43.3221V42.8295H39.4391V48.628H40.5003V46.4678C40.8035 46.8468 41.2583 47.0742 41.8267 47.0742C42.9258 47.0742 43.8354 46.1267 43.8354 44.876C43.8354 43.7011 42.9258 42.7158 41.8267 42.7158ZM41.6372 46.0888C40.993 46.0888 40.5003 45.634 40.5003 44.9139C40.5003 44.2317 40.993 43.739 41.6372 43.739C42.3194 43.739 42.7742 44.1938 42.7742 44.9139C42.7742 45.634 42.2815 46.0888 41.6372 46.0888ZM46.6021 44.5728L45.503 42.8295H44.4418V46.9605H45.4651V44.5349L46.5263 46.2025H46.6779L47.739 44.5349V46.9605H48.7623V42.8295H47.7011L46.6021 44.5728ZM52.7038 43.3221C52.4007 42.9431 51.9459 42.7158 51.3395 42.7158C50.2404 42.7158 49.3308 43.6632 49.3308 44.9139C49.3308 46.1646 50.2404 47.1121 51.3395 47.1121C51.9459 47.1121 52.4007 46.8847 52.7038 46.5057V46.9984H53.765V42.8295H52.7038V43.3221ZM51.5669 46.0888C50.9226 46.0888 50.4299 45.634 50.4299 44.9139C50.4299 44.2317 50.9226 43.739 51.5669 43.739C52.2491 43.739 52.7038 44.1938 52.7038 44.9139C52.7038 45.634 52.2112 46.0888 51.5669 46.0888ZM57.0244 42.7158C56.418 42.7158 55.9632 42.9431 55.6979 43.3221V42.8295H54.6367V48.628H55.6979V46.4678C56.0011 46.8468 56.4559 47.0742 57.0244 47.0742C58.1234 47.0742 59.033 46.1267 59.033 44.876C59.033 43.7011 58.1234 42.7158 57.0244 42.7158ZM56.797 46.0888C56.1527 46.0888 55.66 45.634 55.66 44.9139C55.66 44.2317 56.1527 43.739 56.797 43.739C57.4792 43.739 57.9339 44.1938 57.9339 44.9139C57.9718 45.634 57.4792 46.0888 56.797 46.0888ZM65.817 42.7158C64.5284 42.7158 63.6188 43.6632 63.6188 44.9139C63.6188 46.1646 64.4905 47.1121 65.8928 47.1121C66.6887 47.1121 67.2951 46.771 67.712 46.2404L66.8403 45.7477C66.6508 45.9751 66.3097 46.1646 65.8928 46.1646C65.3243 46.1646 64.8695 45.9372 64.7179 45.3687H67.8636C67.9015 45.2171 67.9015 45.1034 67.9015 44.9139C67.9394 43.7011 67.0677 42.7158 65.817 42.7158ZM64.7558 44.5349C64.8695 44.0043 65.2864 43.7011 65.8549 43.7011C66.3097 43.7011 66.7645 43.9285 66.8782 44.5349H64.7558ZM63.543 42.8295H62.2545L61.0417 44.497H60.6627V42.8295H59.6015V46.9605H60.6627V45.3308H61.1175L62.3303 46.9605H63.5809L61.9892 44.876L63.543 42.8295ZM66.2339 38.6226H67.6741V34.4537H69.4174V33.0893H64.4905V34.4537H66.2339V38.6226ZM24.2794 37.5993L23.1045 36.9172C22.8771 37.2583 22.4223 37.4857 21.8538 37.4857C21.0958 37.4857 20.4894 37.1825 20.2999 36.4245H24.5068C24.5447 36.235 24.5447 36.0455 24.5447 35.8181C24.5447 34.1884 23.3698 32.8619 21.7401 32.8619C19.9968 32.8619 18.784 34.1505 18.784 35.8181C18.784 37.4857 19.9589 38.7742 21.8538 38.7742C22.915 38.7742 23.7488 38.3573 24.2794 37.5993ZM21.7022 34.1884C22.3086 34.1884 22.915 34.5295 23.0666 35.3254H20.2241C20.4136 34.6053 20.9442 34.1884 21.7022 34.1884ZM26.9702 37.9783C27.3871 38.5089 27.9556 38.7742 28.7894 38.7742C30.2675 38.7742 31.5181 37.4857 31.5181 35.8181C31.5181 34.1505 30.3054 32.8619 28.7894 32.8619C27.9935 32.8619 27.3871 33.1651 26.9702 33.6578V33.0135H25.53V40.8208H26.9702V37.9783ZM28.5241 34.2642C29.4337 34.2642 30.078 34.9085 30.078 35.8181C30.078 36.7656 29.4337 37.372 28.5241 37.372C27.6524 37.372 26.9702 36.7277 26.9702 35.8181C26.9702 34.9085 27.6524 34.2642 28.5241 34.2642ZM35.3081 38.7742C36.3692 38.7742 37.203 38.3573 37.7336 37.5993L36.5587 36.9172C36.3314 37.2583 35.8766 37.4857 35.3081 37.4857C34.5501 37.4857 33.9437 37.1825 33.7542 36.4245H37.961C37.9989 36.235 37.9989 36.0455 37.9989 35.8181C37.9989 34.1884 36.824 32.8619 35.1944 32.8619C33.451 32.8619 32.2382 34.1505 32.2382 35.8181C32.2382 37.4857 33.4131 38.7742 35.3081 38.7742ZM35.1944 34.1884C35.8008 34.1884 36.4071 34.5295 36.5587 35.3254H33.7163C33.9058 34.6053 34.3985 34.1884 35.1944 34.1884ZM46.7158 37.9783C47.1326 38.5089 47.7011 38.7742 48.5349 38.7742C50.013 38.7742 51.2637 37.4857 51.2637 35.8181C51.2637 34.1505 50.0509 32.8619 48.5349 32.8619C47.739 32.8619 47.1326 33.1651 46.7158 33.6578V33.0135H45.2756V40.8208H46.7158V37.9783ZM48.2317 34.2642C49.1413 34.2642 49.7856 34.9085 49.7856 35.8181C49.7856 36.7656 49.1413 37.372 48.2317 37.372C47.36 37.372 46.6779 36.7277 46.6779 35.8181C46.7158 34.9085 47.36 34.2642 48.2317 34.2642ZM54.523 31.725C54.523 31.3081 54.1819 30.967 53.765 30.967C53.3481 30.967 53.007 31.3081 53.007 31.725C53.007 32.1419 53.3481 32.4829 53.765 32.4829C54.1819 32.4829 54.523 32.1419 54.523 31.725ZM51.9838 35.856C51.9838 37.5236 53.1586 38.8121 55.0536 38.8121C56.1148 38.8121 56.9486 38.3952 57.4792 37.6372L56.3043 36.9551C56.0769 37.2962 55.6221 37.5236 55.0536 37.5236C54.2956 37.5236 53.6892 37.2204 53.4997 36.4624H57.7066C57.7444 36.2729 57.7444 36.0834 57.7444 35.856C57.7444 34.2263 56.5696 32.8998 54.9399 32.8998C53.1586 32.8998 51.9838 34.1884 51.9838 35.856ZM56.3043 35.3254H53.4618C53.6134 34.6053 54.144 34.1884 54.9399 34.1884C55.5084 34.1884 56.1148 34.5295 56.3043 35.3254ZM55.1294 31.725C55.1294 32.1419 55.4705 32.4829 55.8874 32.4829C56.3043 32.4829 56.6454 32.1419 56.6454 31.725C56.6454 31.3081 56.3043 30.967 55.8874 30.967C55.4705 30.967 55.1294 31.3081 55.1294 31.725ZM63.8462 37.3341L62.5956 36.614C62.3682 37.0688 61.8755 37.3341 61.307 37.3341C60.4353 37.3341 59.8289 36.6898 59.8289 35.8181C59.8289 34.9085 60.4732 34.3021 61.307 34.3021C61.8755 34.3021 62.3682 34.6053 62.5956 35.0601L63.8462 34.34C63.3914 33.4683 62.444 32.8998 61.3449 32.8998C59.6394 32.8998 58.3887 34.1884 58.3887 35.856C58.3887 37.5236 59.6394 38.8121 61.3449 38.8121C62.444 38.7742 63.3914 38.2057 63.8462 37.3341ZM72.8663 32.8998C71.2366 32.8998 69.9101 34.1884 69.9101 35.856C69.9101 37.5236 71.1987 38.8121 72.8663 38.8121C74.4959 38.8121 75.8224 37.5236 75.8224 35.856C75.8224 34.1884 74.4959 32.8998 72.8663 32.8998ZM72.8663 37.372C72.0325 37.372 71.3503 36.7277 71.3503 35.8181C71.3503 34.9085 71.9946 34.2642 72.8663 34.2642C73.738 34.2642 74.3822 34.9085 74.3822 35.8181C74.3822 36.7277 73.7001 37.372 72.8663 37.372ZM44.2523 33.0514H42.5468L40.9551 35.3254H40.4624V33.0514H39.0222V38.6226H40.4624V36.4245H41.0688L42.6605 38.6226H44.3281L42.2057 35.8181L44.2523 33.0514ZM79.8397 35.8181L81.9242 33.0514H80.2187L78.627 35.3254H78.1343V33.0514H76.6941V38.6226H78.1343V36.4245H78.7407L80.3324 38.6226H82L79.8397 35.8181ZM12 38.6226H13.5539V32.4071H16.3205V38.6226H17.8744V30.967H12V38.6226ZM46.9811 16.3757L49.4445 13.9123C50.8089 12.5479 50.8089 10.3498 49.4445 9.02328C48.0801 7.65891 45.882 7.65891 44.5555 9.02328C43.1911 10.3877 43.1911 12.5858 44.5555 13.9123L46.9811 16.3757ZM49.4445 25.7369C50.8089 24.3725 50.8089 22.1743 49.4445 20.8479L46.9811 18.3844L44.5176 20.8479C43.1532 22.2122 43.1532 24.4104 44.5176 25.7369C45.882 27.0633 48.0801 27.0633 49.4445 25.7369ZM48.0043 17.3611L50.4678 19.8246C51.8322 21.189 54.0303 21.189 55.3568 19.8246C56.7212 18.4602 56.7212 16.262 55.3568 14.9356C53.9924 13.5712 51.7943 13.5712 50.4678 14.9356L48.0043 17.3611ZM43.5322 19.8246L45.9957 17.3611L43.5322 14.8977C42.1678 13.5333 39.9697 13.5333 38.6432 14.8977C37.2788 16.262 37.2788 18.4602 38.6432 19.7867C40.0076 21.189 42.2057 21.189 43.5322 19.8246Z" fill="white"/>
</svg>
