<svg width="120" height="120" viewBox="0 0 120 120" fill="none" xmlns="http://www.w3.org/2000/svg">
<path fill-rule="evenodd" clip-rule="evenodd" d="M60 0C26.9153 0 0 26.9153 0 60C0 93.0847 26.9153 120 60 120C93.0822 120 120 93.0847 120 60C120 26.9153 93.0822 0 60 0Z" fill="white"/>
<path fill-rule="evenodd" clip-rule="evenodd" d="M90.2787 16.9641C85.6994 28.7093 75.2743 31.1531 60.173 31.1531C58.5522 31.1531 56.9468 31.1276 55.3974 31.1047C53.899 31.0843 52.4821 31.0614 51.0933 31.0614C49.8599 31.0614 48.6164 31.0767 47.3906 31.1302C49.5057 25.9367 52.8822 22.4073 57.6884 20.2667C64.3879 17.2852 73.098 17.2546 80.7837 17.2317C84.1322 17.2189 87.338 17.2062 90.2787 16.9641Z" fill="#008F32"/>
<path fill-rule="evenodd" clip-rule="evenodd" d="M94.9827 20.7331C88.2093 35.4878 73.1131 36.9659 60.1728 36.9659C57.3314 36.9659 54.6098 36.897 52.0895 36.8818L48.8302 49.6284C65.5217 36.0204 87.5952 49.5112 85.2354 70.0455C83.6453 83.8752 73.7859 92.9191 63.3556 95.5184C51.9927 98.3521 39.404 94.1117 33.7595 82.5322C33.1607 81.309 32.1184 78.8575 31.7209 77.5477L43.703 74.4694C43.9146 75.1599 44.2739 75.8276 44.651 76.4367C52.6731 89.3744 68.9288 82.9043 70.7636 69.4823C72.6315 55.8285 53.4733 48.5556 44.7428 64.5131L34.1163 59.9847L33.9328 59.9032L39.0575 39.3307C39.3735 37.868 40.4387 33.783 40.6221 33.1128C46.4144 11.814 65.1522 11.4776 80.1821 11.4216C73.9668 8.83504 67.1526 7.40289 59.9995 7.40289C30.9487 7.40289 7.40234 30.9493 7.40234 60C7.40234 89.0508 30.9487 112.597 59.9995 112.597C89.0502 112.597 112.597 89.0508 112.597 60C112.597 44.384 105.788 30.3657 94.9827 20.7331Z" fill="#EB2316"/>
</svg>
