<svg width="263" height="71" viewBox="0 0 263 71" fill="none" xmlns="http://www.w3.org/2000/svg">
<path d="M262.641 0.269287H0.641113V70.2693H262.641V0.269287Z" fill="#0C592E"/>
<path d="M33.8894 31.9544L37.0938 28.7334C37.9461 27.8781 38.4246 26.7199 38.4246 25.5124C38.4246 24.305 37.9461 23.1468 37.0938 22.2915C36.6742 21.8685 36.175 21.5328 35.6251 21.3037C35.0751 21.0746 34.4852 20.9567 33.8894 20.9567C33.2936 20.9567 32.7037 21.0746 32.1538 21.3037C31.6038 21.5328 31.1046 21.8685 30.685 22.2915C29.8328 23.1468 29.3543 24.305 29.3543 25.5124C29.3543 26.7199 29.8328 27.8781 30.685 28.7334L33.8894 31.9544Z" fill="white"/>
<path d="M33.8894 34.5676L30.685 37.7886C29.8328 38.644 29.3543 39.8022 29.3543 41.0096C29.3543 42.2171 29.8328 43.3753 30.685 44.2306C31.1038 44.6549 31.6028 44.9918 32.1529 45.2217C32.7029 45.4517 33.2932 45.5701 33.8894 45.5701C34.4856 45.5701 35.0759 45.4517 35.626 45.2217C36.176 44.9918 36.675 44.6549 37.0938 44.2306C37.9461 43.3753 38.4246 42.2171 38.4246 41.0096C38.4246 39.8022 37.9461 38.644 37.0938 37.7886L33.8894 34.5676Z" fill="white"/>
<path d="M38.3977 36.4848L35.2099 33.2638L38.4198 30.0373C38.8394 29.6143 39.3386 29.2786 39.8886 29.0495C40.4386 28.8204 41.0285 28.7025 41.6242 28.7025C42.22 28.7025 42.8099 28.8204 43.3599 29.0495C43.9099 29.2786 44.4091 29.6143 44.8287 30.0373C45.6812 30.8935 46.1599 32.0527 46.1599 33.261C46.1599 34.4693 45.6812 35.6285 44.8287 36.4848C44.4087 36.9111 43.9081 37.2496 43.3561 37.4807C42.8041 37.7117 42.2116 37.8307 41.6132 37.8307C41.0148 37.8307 40.4223 37.7117 39.8703 37.4807C39.3183 37.2496 38.8177 36.9111 38.3977 36.4848Z" fill="white"/>
<path d="M32.5911 33.2638L29.3812 30.0373C28.9616 29.6143 28.4624 29.2786 27.9124 29.0495C27.3624 28.8204 26.7725 28.7025 26.1767 28.7025C25.581 28.7025 24.9911 28.8204 24.4411 29.0495C23.8911 29.2786 23.3919 29.6143 22.9723 30.0373C22.1198 30.8935 21.6411 32.0527 21.6411 33.261C21.6411 34.4693 22.1198 35.6285 22.9723 36.4848C23.3919 36.9077 23.8911 37.2434 24.4411 37.4725C24.9911 37.7016 25.581 37.8196 26.1767 37.8196C26.7725 37.8196 27.3624 37.7016 27.9124 37.4725C28.4624 37.2434 28.9616 36.9077 29.3812 36.4848L32.5911 33.2638Z" fill="white"/>
<path d="M66.2817 43.573H70.4143V22.8879H54.7623V43.573H58.8949V26.7664H66.2817V43.573Z" fill="white"/>
<path fill-rule="evenodd" clip-rule="evenodd" d="M170.282 40.4736C170.919 40.4983 171.553 40.3756 172.134 40.1149C172.716 39.8542 173.23 39.4627 173.635 38.9708L176.746 40.7774C175.342 42.8216 173.099 43.9929 170.226 43.9929C165.199 43.9929 162.028 40.5343 162.028 36.0537C162.028 31.573 165.226 28.1145 169.923 28.1145C174.342 28.1145 177.492 31.6338 177.492 36.0537C177.49 36.5891 177.442 37.1234 177.348 37.6504H166.066C166.602 39.6338 168.249 40.4736 170.282 40.4736ZM173.635 34.6393C173.491 33.7689 173.034 32.9808 172.351 32.4226C171.668 31.8644 170.804 31.5741 169.923 31.6062C169.012 31.5445 168.11 31.8193 167.388 32.3783C166.666 32.9374 166.174 33.7419 166.005 34.6393H173.635Z" fill="white"/>
<path d="M164.867 24.9321C164.872 24.3932 165.087 23.8774 165.467 23.4953C165.847 23.1132 166.362 22.8951 166.9 22.8879C167.437 22.8952 167.949 23.1142 168.324 23.497C168.7 23.8799 168.909 24.3958 168.906 24.9321C168.907 25.196 168.855 25.4574 168.755 25.7013C168.654 25.9453 168.507 26.167 168.321 26.3538C168.134 26.5406 167.913 26.6889 167.669 26.79C167.426 26.8911 167.164 26.9432 166.9 26.9432C166.365 26.9432 165.851 26.732 165.471 26.3555C165.09 25.979 164.873 25.4675 164.867 24.9321Z" fill="white"/>
<path d="M170.569 24.9321C170.573 24.3932 170.788 23.8774 171.169 23.4953C171.549 23.1132 172.063 22.8951 172.602 22.8879C173.138 22.8952 173.65 23.1142 174.026 23.497C174.401 23.8799 174.611 24.3958 174.608 24.9321C174.608 25.196 174.557 25.4574 174.457 25.7013C174.356 25.9453 174.208 26.167 174.022 26.3538C173.836 26.5406 173.615 26.6889 173.371 26.79C173.127 26.8911 172.866 26.9432 172.602 26.9432C172.067 26.9432 171.553 26.732 171.172 26.3555C170.792 25.979 170.575 25.4675 170.569 24.9321Z" fill="white"/>
<path fill-rule="evenodd" clip-rule="evenodd" d="M152.773 43.993C156.784 43.993 160.072 40.5344 160.072 36.0537C160.072 31.5786 156.784 28.1145 152.773 28.1034C151.848 28.0576 150.925 28.2344 150.082 28.6189C149.239 29.0035 148.5 29.5845 147.928 30.3134V28.5399H144.061V49.5841H147.928V41.783C148.5 42.5122 149.238 43.0935 150.082 43.4781C150.925 43.8627 151.848 44.0392 152.773 43.993ZM154.991 33.1237C155.768 33.9008 156.204 34.9548 156.204 36.0537C156.204 37.1527 155.768 38.2066 154.991 38.9837C154.214 39.7608 153.16 40.1974 152.061 40.1974C150.962 40.1974 149.908 39.7608 149.131 38.9837C148.354 38.2066 147.917 37.1527 147.917 36.0537C147.917 34.9548 148.354 33.9008 149.131 33.1237C149.908 32.3466 150.962 31.9101 152.061 31.9101C153.16 31.9101 154.214 32.3466 154.991 33.1237Z" fill="white"/>
<path fill-rule="evenodd" clip-rule="evenodd" d="M99.8231 43.993C103.812 43.993 107.127 40.5344 107.127 36.0537C107.127 31.5786 103.834 28.1145 99.8231 28.1035C98.8977 28.0586 97.975 28.2357 97.1321 28.6202C96.2892 29.0047 95.5505 29.5852 94.9778 30.3134V28.5399H91.1103V49.5841H94.9778V41.783C95.5505 42.5112 96.2892 43.0918 97.1321 43.4762C97.975 43.8607 98.8977 44.0378 99.8231 43.993ZM102.046 33.1237C102.823 33.9008 103.26 34.9548 103.26 36.0537C103.26 37.1527 102.823 38.2066 102.046 38.9837C101.269 39.7608 100.215 40.1974 99.1159 40.1974C98.0169 40.1974 96.963 39.7608 96.1859 38.9837C95.4088 38.2066 94.9722 37.1527 94.9722 36.0537C94.9722 34.9548 95.4088 33.9008 96.1859 33.1237C96.963 32.3466 98.0169 31.9101 99.1159 31.9101C100.215 31.9101 101.269 32.3466 102.046 33.1237Z" fill="white"/>
<path fill-rule="evenodd" clip-rule="evenodd" d="M81.2043 40.4736C81.8413 40.4984 82.4753 40.3756 83.0571 40.1149C83.6388 39.8543 84.1524 39.4627 84.5579 38.9709L87.696 40.7775C86.2927 42.8217 84.0496 43.993 81.1767 43.993C76.149 43.993 72.9778 40.5344 72.9778 36.0537C72.9778 31.5731 76.1491 28.1145 80.8452 28.1145C85.2651 28.1145 88.4198 31.6338 88.4198 36.0537C88.4168 36.5893 88.3669 37.1236 88.2706 37.6504H76.9888C77.5247 39.6338 79.1712 40.4736 81.2043 40.4736ZM84.5579 34.6394C84.4134 33.7689 83.9569 32.9809 83.2735 32.4226C82.5902 31.8644 81.727 31.5742 80.8452 31.6062C79.9342 31.5446 79.0322 31.8193 78.3102 32.3784C77.5882 32.9374 77.0964 33.7419 76.9281 34.6394H84.5579Z" fill="white"/>
<path d="M208.923 28.5399H195.668V32.2637H200.364V43.5731H204.226V32.2637H208.923V28.5399Z" fill="white"/>
<path fill-rule="evenodd" clip-rule="evenodd" d="M117.337 40.4736C117.973 40.4983 118.606 40.3756 119.187 40.1149C119.768 39.8541 120.281 39.4626 120.685 38.9709L123.801 40.7775C122.392 42.8217 120.149 43.993 117.276 43.993C112.248 43.993 109.077 40.5344 109.077 36.0537C109.077 31.5731 112.276 28.1145 116.978 28.1145C121.398 28.1145 124.547 31.6338 124.547 36.0537C124.544 36.5893 124.494 37.1236 124.398 37.6504H113.11C113.663 39.6338 115.32 40.4736 117.337 40.4736ZM120.685 34.6394C120.542 33.7694 120.086 32.9814 119.404 32.4231C118.721 31.8648 117.859 31.5743 116.978 31.6062C116.066 31.5456 115.164 31.8206 114.442 32.3794C113.719 32.9381 113.226 33.742 113.055 34.6394H120.685Z" fill="white"/>
<path d="M179.842 32.9918C179.455 33.9651 179.27 35.0068 179.298 36.0537C179.27 37.0988 179.455 38.1386 179.84 39.1104C180.225 40.0822 180.804 40.9658 181.54 41.7078C182.276 42.4499 183.156 43.0349 184.124 43.4277C185.093 43.8205 186.132 44.0128 187.177 43.993C188.55 44.0073 189.903 43.6524 191.092 42.9652C192.282 42.2781 193.265 41.284 193.939 40.0869L190.586 38.1587C190.261 38.7836 189.765 39.3024 189.155 39.6539C188.545 40.0054 187.847 40.1749 187.144 40.1421C186.082 40.1032 185.076 39.6539 184.339 38.8889C183.601 38.1238 183.189 37.1026 183.189 36.0399C183.189 34.9773 183.601 33.9561 184.339 33.191C185.076 32.426 186.082 31.9767 187.144 31.9377C187.848 31.9087 188.545 32.0809 189.155 32.4342C189.764 32.7874 190.261 33.307 190.586 33.9322L193.9 31.9819C193.239 30.7905 192.266 29.8013 191.085 29.1201C189.905 28.4389 188.561 28.0913 187.199 28.1145C186.152 28.0917 185.111 28.2818 184.14 28.6732C183.168 29.0646 182.286 29.6492 181.548 30.3915C180.809 31.1339 180.229 32.0185 179.842 32.9918Z" fill="white"/>
<path fill-rule="evenodd" clip-rule="evenodd" d="M210.188 36.0537C210.192 34.4879 210.661 32.9585 211.534 31.659C212.408 30.3595 213.647 29.3482 215.096 28.753C216.544 28.1578 218.136 28.0054 219.671 28.3152C221.206 28.625 222.615 29.383 223.719 30.4933C224.823 31.6036 225.573 33.0164 225.874 34.553C226.175 36.0896 226.014 37.681 225.411 39.126C224.808 40.571 223.789 41.8047 222.485 42.671C221.181 43.5373 219.649 43.9973 218.083 43.993C217.04 44.0004 216.007 43.7998 215.042 43.4029C214.078 43.006 213.203 42.4208 212.468 41.6815C211.733 40.9422 211.152 40.0636 210.761 39.0973C210.369 38.131 210.174 37.0963 210.188 36.0537ZM222.155 36.0537C222.136 35.2567 221.883 34.4827 221.427 33.8286C220.971 33.1746 220.333 32.6694 219.591 32.3764C218.85 32.0833 218.038 32.0153 217.258 32.1809C216.478 32.3465 215.765 32.7383 215.206 33.3073C214.648 33.8764 214.269 34.5974 214.118 35.3803C213.968 36.1632 214.051 36.9732 214.358 37.709C214.665 38.4449 215.182 39.0739 215.844 39.5175C216.507 39.961 217.285 40.1994 218.083 40.2029C218.627 40.2147 219.168 40.1148 219.673 39.9094C220.177 39.7041 220.634 39.3976 221.016 39.0089C221.397 38.6201 221.695 38.1574 221.891 37.6491C222.087 37.1409 222.177 36.598 222.155 36.0537Z" fill="white"/>
<path d="M141.53 43.5731H137.044L132.724 37.6504H131.105V43.5731H127.243V28.5399H131.105V34.6449H132.425L136.746 28.5399H141.353L135.806 35.9653L141.53 43.5731Z" fill="white"/>
<path d="M238.105 43.5731H242.597L236.867 35.9653L242.414 28.5399H237.807L233.492 34.6449H232.171V28.5399H228.309V43.5731H232.171V37.6504H233.784L238.105 43.5731Z" fill="white"/>
</svg>
