<svg width="99" height="95" viewBox="0 0 99 95" fill="none" xmlns="http://www.w3.org/2000/svg">
<g clip-path="url(#clip0)">
<path d="M6.41016 84.0582L16.6915 11.2392L87.0058 49.1246L6.41016 84.0582Z" fill="white"/>
<path d="M16.7732 10.8059L6.41054 84.0582L98.4811 50.5869L0.0898438 94.3758L16.7732 10.8059Z" fill="#F4971A"/>
<path d="M0.0898438 94.3757L12.677 0.0279541L86.9791 49.1246L16.6918 11.2392L0.0898438 94.3757Z" fill="#009640"/>
<path d="M12.6779 0.0279541L86.98 49.1246L7.30664 83.6249C7.30664 83.6249 97.7496 51.2097 98.482 50.614L12.6779 0.0279541Z" fill="#FFE500"/>
<path d="M80.5768 38.6715C79.6274 38.7799 78.922 38.0758 79.0306 37.1009C79.1391 36.126 79.98 35.2865 80.9295 35.1782C81.8789 35.0699 82.5843 35.7739 82.4757 36.7488C82.3944 37.6966 81.5263 38.5632 80.5768 38.6715ZM80.9023 35.4761C80.1157 35.5573 79.4103 36.2614 79.329 37.0738C79.2476 37.8591 79.8172 38.4549 80.6039 38.3736C81.3906 38.2924 82.096 37.5612 82.1773 36.7759C82.2859 35.9635 81.689 35.3677 80.9023 35.4761ZM80.9295 37.805L80.5226 37.2092L80.4683 37.8591L80.0614 37.9133L80.2513 36.0718L80.8481 36.0177C81.2008 35.9906 81.5534 36.0989 81.4992 36.5322C81.472 36.8301 81.255 37.0738 80.9566 37.1821L81.3906 37.805H80.9295ZM80.821 36.3426L80.6039 36.3697L80.5497 36.8842L80.7667 36.8572C80.9295 36.8301 81.0922 36.7488 81.0922 36.5593C81.0922 36.3697 80.9837 36.3155 80.821 36.3426Z" fill="#0D0C0B"/>
<path d="M70.5674 27.3249L68.8584 37.805C68.4243 37.1821 67.9089 36.6405 67.3121 36.126C65.4674 34.6095 63.0802 33.7971 60.3403 33.7971C59.7435 33.7971 59.0925 33.8512 58.4957 33.9054H58.4143C55.8914 34.2574 53.6127 35.2053 51.7138 36.6134L51.9308 35.2323L48.567 35.2053C48.3229 35.2053 47.916 35.2053 47.5091 35.2594C46.6681 35.3677 45.8272 35.6115 45.0133 35.9906L43.9011 36.126L46.6138 34.8803L30.2017 27.2436L28.1401 38.6715C27.6789 37.805 27.1363 37.0196 26.4853 36.3426C24.2066 33.9054 21.0598 32.6597 17.1263 32.6597C16.1497 32.6597 15.0918 32.7409 13.9253 32.8763L5.13598 34.0137L0.144531 64.5603L12.7045 62.9355C16.5566 62.421 21.2768 61.2836 24.9933 57.1945L24.288 61.3919L33.0501 60.2004V60.2545L42.8974 58.9818L44.6064 48.7183C44.9862 46.4977 45.2846 45.6853 46.3968 45.2521C46.2612 46.0645 46.2069 46.8769 46.2341 47.7164C46.3426 50.7223 47.5091 53.2678 49.6521 55.028C51.5239 56.5716 53.9654 57.4111 56.7324 57.4111C57.3563 57.4111 57.9803 57.357 58.6042 57.2757H58.6856C61.6153 56.8695 64.2196 55.6509 66.2541 53.8636L65.9015 56.0029L76.1014 52.5908L80.4689 26.025L70.5674 27.3249ZM17.0178 51.4264C15.6614 52.5908 14.2237 53.0241 12.2976 53.2949L14.0338 42.6794L14.2237 42.6523C15.1731 42.5169 15.8242 42.4628 16.3939 42.4628C17.0449 42.4628 17.5332 42.5711 18.0486 42.7877C18.8082 43.1398 19.2965 44.1418 19.3508 45.5229C19.405 48.0413 18.6183 50.0182 17.0178 51.4264ZM57.926 48.1767C57.7904 48.2038 57.6547 48.2038 57.5191 48.2038C57.0579 48.2038 56.651 48.0955 56.4069 47.8788C56.2984 47.7976 55.9728 47.5268 55.9728 46.7956C55.9186 44.9542 57.3021 43.3293 59.1196 43.0856C59.2552 43.0585 59.418 43.0585 59.5536 43.0585C60.0148 43.0585 60.4217 43.1669 60.6659 43.3835C60.7744 43.4648 61.0728 43.7356 61.0999 44.4938C61.1542 46.2269 59.6622 47.9601 57.926 48.1767Z" fill="white"/>
<path d="M30.1738 40.0526L31.8829 30.4933L41.3775 34.9074L30.1738 40.0526Z" fill="#E5263A"/>
<path d="M24.9118 37.8863C21.8193 34.5554 17.3433 34.7179 14.2507 35.1241L7.08909 36.0448L2.83008 61.9877L12.4061 60.742C16.5294 60.2004 21.1954 58.9818 24.5592 54.2157C26.5123 51.4535 27.5703 47.9331 27.4618 44.548C27.3533 41.9212 26.4581 39.5652 24.9118 37.8863ZM18.4555 53.1054C16.6108 54.6761 14.7119 55.2177 12.2704 55.5426L12.1348 55.5697C11.321 55.678 10.48 55.7863 9.6662 55.8676L12.1348 40.7297L13.9523 40.486C16.0683 40.2152 17.4518 40.1069 19.0252 40.8109C20.5714 41.5421 21.5209 43.2482 21.5751 45.4688C21.6294 47.6623 21.1411 50.7765 18.4555 53.1054Z" fill="white"/>
<path d="M48.486 42.5983L49.327 37.453H48.6759C48.4046 37.453 48.1062 37.453 47.8078 37.5072C46.3429 37.6967 44.8238 38.4821 43.6302 39.5923L43.8201 38.4279L38.7201 39.1049L35.709 57.7091L40.9717 57.0321L42.4095 48.3664C43.0334 44.6293 43.9557 43.194 47.9435 42.6795L48.486 42.5983Z" fill="white"/>
<path d="M65.902 37.832C64.1387 36.3697 61.6159 35.7469 58.7946 36.126H58.7403C52.6909 36.9384 48.2691 41.8941 48.4862 47.6351C48.5676 49.9911 49.4628 51.968 51.1175 53.322C52.9351 54.8385 55.5122 55.4613 58.3606 55.0822H58.4148C64.41 54.2698 68.7775 49.3683 68.5876 43.7085C68.452 41.2442 67.5296 39.2131 65.902 37.832ZM58.7946 40.8921C60.0967 40.7296 61.2361 41.0004 62.0499 41.6775C62.8095 42.3274 63.2435 43.2481 63.2706 44.3855C63.3791 47.256 61.0462 49.9911 58.1978 50.3702C56.9499 50.5327 55.7835 50.2619 54.9696 49.5578C54.1829 48.9079 53.776 47.9872 53.7218 46.8498C53.6404 43.898 55.8648 41.2712 58.7946 40.8921Z" fill="white"/>
<path d="M72.494 29.3018L68.5605 53.4304L73.8504 52.7263L77.811 28.5977L72.494 29.3018Z" fill="white"/>
<path d="M29.7125 42.517L26.9727 58.8194L32.0455 58.1153L35.0295 40.161L29.7125 42.517Z" fill="white"/>
<path d="M24.9118 37.8863C21.8193 34.5554 17.3433 34.7179 14.2507 35.1241L7.08909 36.0448L2.83008 61.9877L12.4061 60.742C16.5294 60.2004 21.1954 58.9818 24.5592 54.2157C26.5123 51.4535 27.5703 47.9331 27.4618 44.548C27.3533 41.9212 26.4581 39.5652 24.9118 37.8863ZM18.4555 53.1054C16.6108 54.6761 14.7119 55.2177 12.2704 55.5426L12.1348 55.5697C11.321 55.678 10.48 55.7863 9.6662 55.8676L12.1348 40.7297L13.9523 40.486C16.0683 40.2152 17.4518 40.1069 19.0252 40.8109C20.5714 41.5421 21.5209 43.2482 21.5751 45.4688C21.6294 47.6623 21.1411 50.7765 18.4555 53.1054Z" fill="#272726"/>
<path d="M48.486 42.5983L49.327 37.453H48.6759C48.4046 37.453 48.1062 37.453 47.8078 37.5072C46.3429 37.6967 44.8238 38.4821 43.6302 39.5923L43.8201 38.4279L38.7201 39.1049L35.709 57.7091L40.9717 57.0321L42.4095 48.3664C43.0334 44.6293 43.9557 43.194 47.9435 42.6795L48.486 42.5983Z" fill="#0D0C0B"/>
<path d="M65.902 37.832C64.1387 36.3697 61.6159 35.7469 58.7946 36.126H58.7403C52.6909 36.9384 48.2691 41.8941 48.4862 47.6351C48.5676 49.9911 49.4628 51.968 51.1175 53.322C52.9351 54.8385 55.5122 55.4613 58.3606 55.0822H58.4148C64.41 54.2698 68.7775 49.3683 68.5876 43.7085C68.452 41.2442 67.5296 39.2131 65.902 37.832ZM58.7946 40.8921C60.0967 40.7296 61.2361 41.0004 62.0499 41.6775C62.8095 42.3274 63.2435 43.2481 63.2706 44.3855C63.3791 47.256 61.0462 49.9911 58.1978 50.3702C56.9499 50.5327 55.7835 50.2619 54.9696 49.5578C54.1829 48.9079 53.776 47.9872 53.7218 46.8498C53.6404 43.898 55.8648 41.2712 58.7946 40.8921Z" fill="#0D0C0B"/>
<path d="M72.494 29.3018L68.5605 53.4304L73.8504 52.7263L77.811 28.5977L72.494 29.3018Z" fill="#0D0C0B"/>
<path d="M29.7125 42.517L26.9727 58.8194L32.0455 58.1153L35.0295 40.161L29.7125 42.517Z" fill="#0D0C0B"/>
<path d="M24.9118 37.8863C21.8193 34.5554 17.3433 34.7179 14.2507 35.1241L7.08909 36.0448L2.83008 61.9877L12.4061 60.742C16.5294 60.2004 21.1954 58.9818 24.5592 54.2157C26.5123 51.4535 27.5703 47.9331 27.4618 44.548C27.3533 41.9212 26.4581 39.5652 24.9118 37.8863ZM18.4555 53.1054C16.6108 54.6761 14.7119 55.2177 12.2704 55.5426L12.1348 55.5697C11.321 55.678 10.48 55.7863 9.6662 55.8676L12.1348 40.7297L13.9523 40.486C16.0683 40.2152 17.4518 40.1069 19.0252 40.8109C20.5714 41.5421 21.5209 43.2482 21.5751 45.4688C21.6294 47.6623 21.1411 50.7765 18.4555 53.1054Z" fill="#0D0C0B"/>
</g>
<defs>
<clipPath id="clip0">
<rect width="98.3913" height="94.3478" fill="white" transform="translate(0.0898438 0.0279541)"/>
</clipPath>
</defs>
</svg>
