<svg width="49" height="44" viewBox="0 0 49 44" fill="none" xmlns="http://www.w3.org/2000/svg">
<path d="M45.0737 0.498749H8.64307C7.67706 0.499697 6.70976 0.881607 5.95347 1.56066C5.19718 2.23972 4.71368 3.16045 4.60908 4.12078L0.699878 40.3411C0.597185 41.3014 0.88194 42.2222 1.49165 42.9012C2.10136 43.5803 2.98622 43.9622 3.95202 43.9631H40.3827C41.3487 43.9622 42.316 43.5803 43.0723 42.9012C43.8286 42.2222 44.3121 41.3014 44.4167 40.3411L48.3259 4.12078C48.4286 3.16045 48.1438 2.23972 47.5341 1.56066C46.9244 0.881606 46.0395 0.499696 45.0737 0.498749ZM32.4432 28.1946C32.5945 28.3626 32.7074 28.5623 32.7755 28.7821C32.8435 29.0018 32.8654 29.2374 32.8398 29.4754C32.8143 29.7134 32.7418 29.949 32.6265 30.1689C32.5113 30.3888 32.3555 30.5885 32.1681 30.7568C31.9807 30.9251 31.7653 31.0585 31.5344 31.1495C31.3034 31.2405 31.0613 31.2873 30.822 31.2872C30.5826 31.2871 30.3508 31.24 30.1395 31.1488C29.9283 31.0576 29.742 30.9239 29.5911 30.7554L24.2365 24.7918L17.5946 30.7554C17.2163 31.0944 16.7327 31.2847 16.25 31.2845C15.7673 31.2842 15.325 31.0934 15.0203 30.7541C14.7156 30.4147 14.5734 29.9545 14.625 29.4746C14.6765 28.9947 14.9176 28.5343 15.2952 28.1946L21.9371 22.2309L16.5825 16.2673C16.2782 15.9276 16.1365 15.4672 16.1886 14.9873C16.2406 14.5073 16.4822 14.0472 16.8601 13.7078C17.2381 13.3684 17.7215 13.1777 18.2043 13.1774C18.687 13.1772 19.1296 13.3674 19.4347 13.7064L24.7893 19.67L31.4312 13.7064C31.8094 13.3674 32.2931 13.1772 32.7757 13.1774C33.2584 13.1777 33.7007 13.3684 34.0054 13.7078C34.3101 14.0472 34.4523 14.5073 34.4008 14.9873C34.3492 15.4672 34.1082 15.9276 33.7305 16.2673L27.0886 22.2309L32.4432 28.1946Z" fill="#ED1B31"/>
</svg>
