<svg width="793" height="184" viewBox="0 0 793 184" fill="none" xmlns="http://www.w3.org/2000/svg">
<path d="M0.182012 124.794L6.58787 124.035L10.9816 115.411L22.4793 114.05L23.9576 121.98L29.9939 121.265L23.9576 91.3807L17.9213 92.0951L0.182012 124.794ZM13.7329 109.792L19.7281 98.1664L21.6991 108.849L13.7329 109.792ZM33.2064 120.885L38.8321 120.219L41.4191 106.515L48.4409 119.082L55.011 118.304L46.7162 103.986L60.7188 87.0297L53.9844 87.8268L42.1172 102.67L44.7452 88.9203L39.1195 89.5861L33.2064 120.885ZM86.6345 83.9624L81.0088 84.6282L76.1223 110.513L65.3227 111.791L70.2092 85.9064L64.5835 86.5723L58.6704 117.871L78.545 115.519L77.4363 121.439L83.062 120.773L85.1973 109.439L81.748 109.847L86.6345 83.9624ZM93.3358 83.1692L87.4227 114.468L93.0483 113.802L110.377 90.6627L106.312 112.232L111.937 111.566L117.851 80.2677L112.225 80.9335L94.8962 104.073L98.9614 82.5034L93.3358 83.1692ZM142.498 77.3505L132.479 78.5364C129.481 78.8911 126.566 79.4843 123.896 82.0331C121.433 84.3922 120.201 87.6806 120.201 90.6164C120.201 93.5936 121.227 95.4569 122.336 96.4835C123.363 97.4371 124.841 98.0891 126.524 98.1793L116.341 111.045L123.322 110.219L133.218 96.8495L133.3 96.8398L130.959 109.315L136.585 108.649L142.498 77.3505ZM135.846 83.4306L134.08 92.7365L130.056 93.2128C129.153 93.3198 127.921 93.4656 126.894 92.512C126.36 91.9963 125.867 91.1449 125.867 89.739C125.867 87.8369 126.73 86.4116 127.633 85.5604C128.372 84.894 129.563 84.1742 131.37 83.9603L135.846 83.4306ZM183.808 81.2273C182.083 75.1049 177.115 72.7158 170.791 73.4642C166.479 73.9746 162.168 75.5186 158.472 79.6775C155.269 83.3232 153.462 88.1269 153.462 93.1302C153.462 97.0998 154.612 100.313 157.158 102.782C160.197 105.689 163.687 106.186 167.424 105.743C174.487 104.908 179.619 100.785 182.33 94.9236L175.801 95.6964C173.789 98.5809 170.627 100.072 167.711 100.417C164.59 100.786 162.66 99.774 161.429 98.5966C159.416 96.6846 159.088 93.953 159.088 92.2577C159.088 89.3218 159.868 86.0869 161.757 83.5891C163.605 81.0961 166.397 79.2771 170.298 78.8153C171.612 78.6598 175.883 78.3198 177.402 81.9855L183.808 81.2273ZM186.981 102.684L192.607 102.019L197.493 76.1341L203.119 75.4683L204.145 70.054L187.268 72.0515L186.242 77.4658L191.868 76.8L186.981 102.684ZM195.874 101.632L202.28 100.874L206.673 92.2491L218.171 90.8883L219.649 98.8179L225.686 98.1034L219.649 68.219L213.613 68.9335L195.874 101.632ZM209.425 86.6307L215.42 75.0048L217.391 85.6878L209.425 86.6307ZM228.898 97.7232L234.524 97.0574L236.741 85.217L241.299 84.6775C243.435 84.4248 246.268 83.7173 248.691 81.4457C250.292 79.933 252.386 77.1628 252.386 72.6556C252.386 69.389 251.196 67.6692 250.333 66.8616C248.362 65.0274 245.734 65.1317 243.722 65.3698L234.811 66.4245L228.898 97.7232ZM239.41 71.1729L243.024 70.7452C243.927 70.6383 244.995 70.5946 245.898 71.4801C246.679 72.2561 246.761 73.2801 246.761 74.0658C246.761 76.0919 245.816 77.2788 245.241 77.843C244.502 78.5508 243.394 79.1368 241.997 79.3021L237.809 79.7978L239.41 71.1729ZM254.791 94.6585L260.417 93.9927L265.304 68.1083L270.929 67.4424L271.956 62.0281L255.079 64.0257L254.052 69.4399L259.678 68.7741L254.791 94.6585ZM263.684 93.606L270.09 92.8478L274.484 84.2232L285.982 82.8624L287.46 90.792L293.496 90.0775L287.46 60.1931L281.424 60.9076L263.684 93.606ZM277.235 78.6048L283.23 66.9789L285.201 77.662L277.235 78.6048ZM296.709 89.6973L302.334 89.0315L304.839 75.7098L315.639 74.4316L313.134 87.7532L318.76 87.0874L324.673 55.7887L319.047 56.4545L316.665 69.0173L305.866 70.2955L308.247 57.7327L302.622 58.3986L296.709 89.6973ZM355.991 52.0819L349.421 52.8595L339.566 70.7313L334.556 54.6189L327.986 55.3965L335.336 77.1863L330.162 85.7378L336.732 84.9602L355.991 52.0819ZM369.256 50.5119L362.686 51.2896L345.891 83.8762L352.461 83.0986L365.067 57.2928L368.968 81.1448L374.881 80.445L369.256 50.5119ZM375.445 80.3782L381.851 79.6201L386.245 70.9955L397.742 69.6346L399.221 77.5642L405.257 76.8498L399.221 46.9654L393.184 47.6798L375.445 80.3782ZM388.996 65.3771L394.991 53.7511L396.962 64.4342L388.996 65.3771ZM408.552 76.4598L410.974 76.1731L410.851 76.8906C410.605 78.367 409.414 79.3763 408.059 79.5367L407.525 82.3703C408.1 82.2609 410.235 81.8428 411.755 80.4638C413.397 78.9876 413.726 77.2533 414.054 75.6018L415.081 70.1875L409.619 70.8339L408.552 76.4598ZM435.476 42.6743L429.562 73.973L435.188 73.3072L452.517 50.1678L448.452 71.7374L454.077 71.0715L459.99 39.7728L454.365 40.4386L437.036 63.578L441.101 42.0085L435.476 42.6743ZM465.872 39.0766L459.959 70.3754L492.974 66.4678L491.865 72.388L497.491 71.7222L499.626 60.3877L496.177 60.7959L501.063 34.9115L495.437 35.5773L490.551 61.4618L481.394 62.5456L486.28 36.6612L480.655 37.327L475.768 63.2114L466.611 64.2953L471.498 38.4108L465.872 39.0766ZM507.737 34.1216L501.824 65.4203L507.45 64.7545L524.778 41.6151L520.713 63.1846L526.339 62.5188L532.252 31.2201L526.626 31.8859L509.298 55.0253L513.363 33.4557L507.737 34.1216ZM541.805 60.6883L547.43 60.0225L549.935 46.7008L560.735 45.4226L558.23 58.7442L563.856 58.0784L569.769 26.7797L564.143 27.4455L561.761 40.0083L550.962 41.2865L553.343 28.7237L547.718 29.3896L541.805 60.6883ZM567.087 57.696L573.492 56.9378L577.886 48.3132L589.384 46.9523L590.862 54.8819L596.898 54.1675L590.862 24.2831L584.826 24.9975L567.087 57.696ZM580.637 42.6948L586.633 31.0689L588.604 41.7519L580.637 42.6948ZM609.695 52.6529L615.321 51.9871L620.207 26.1026L631.007 24.8244L626.121 50.7088L631.746 50.043L637.659 18.7443L615.608 21.3542L609.695 52.6529ZM656.535 15.9726C651.936 16.5169 647.789 18.0829 644.134 22.1956C640.931 25.8413 639.042 30.6547 639.042 35.6167C639.042 40.2479 640.644 43.325 642.738 45.31C645.736 48.1805 649.267 48.7135 653.168 48.2518C657.767 47.7075 661.915 46.1415 665.569 42.0288C668.772 38.3831 670.661 33.5697 670.661 28.6077C670.661 23.9766 669.06 20.8995 666.965 18.9145C663.968 16.044 660.436 15.5109 656.535 15.9726ZM653.62 42.9056C651.649 43.1389 649.062 43.1143 647.009 41.1244C645.736 39.9105 644.668 37.804 644.668 34.7855C644.668 31.891 645.53 28.5636 647.419 26.1072C649.349 23.5631 652.142 21.7854 656.084 21.3188C658.055 21.0855 660.642 21.1102 662.695 23.1C663.968 24.3139 665.035 26.4204 665.035 29.439C665.035 32.3335 664.173 35.6608 662.284 38.1173C660.354 40.6613 657.562 42.439 653.62 42.9056ZM692.829 12.2145L686.259 12.9922L669.464 45.5788L676.034 44.8012L688.64 18.9954L692.541 42.8474L698.455 42.1475L692.829 12.2145ZM701.646 41.7698L707.272 41.1039L709.859 27.4004L716.881 39.9667L723.451 39.189L715.156 24.8714L729.159 7.91462L722.424 8.71168L710.557 23.555L713.185 9.80522L707.559 10.4711L701.646 41.7698ZM724.482 39.067L730.888 38.3088L735.282 29.6842L746.78 28.3233L748.258 36.2529L754.294 35.5385L748.258 5.65408L742.222 6.36852L724.482 39.067ZM738.033 24.0658L744.028 12.4398L745.999 23.1229L738.033 24.0658ZM754.796 35.479L761.531 34.682L770.688 22.5991L775.944 32.9761L782.35 32.2179L774.794 17.8127L788.263 0.91916L781.529 1.71622L772.33 13.8453L767.115 3.42214L760.71 4.18032L768.224 18.5903L754.796 35.479ZM785.499 31.8452L787.922 31.5584L787.798 32.2759C787.552 33.7523 786.361 34.7616 785.006 34.922L784.472 37.7556C785.047 37.6463 787.183 37.2281 788.702 35.8492C790.344 34.3729 790.673 32.6387 791.001 30.9872L792.028 25.5729L786.567 26.2193L785.499 31.8452ZM43.5755 143.825C41.8509 137.702 36.8822 135.313 30.5585 136.062C26.2469 136.572 21.9352 138.116 18.2395 142.275C15.0366 145.921 13.2298 150.725 13.2298 155.728C13.2298 159.697 14.3796 162.911 16.9255 165.38C19.9642 168.287 23.4546 168.783 27.1913 168.341C34.2542 167.505 39.3871 163.383 42.0973 157.521L35.5682 158.294C33.5561 161.179 30.3942 162.669 27.4788 163.014C24.358 163.384 22.428 162.372 21.1961 161.194C19.184 159.282 18.8555 156.551 18.8555 154.855C18.8555 151.919 19.6357 148.684 21.5246 146.187C23.3724 143.694 26.1647 141.875 30.0657 141.413C31.3798 141.257 35.6503 140.917 37.1697 144.583L43.5755 143.825ZM62.7633 132.25C58.1642 132.794 54.0168 134.36 50.3622 138.473C47.1593 142.119 45.2703 146.932 45.2703 151.894C45.2703 156.525 46.8718 159.603 48.966 161.588C51.9636 164.458 55.4951 164.991 59.3961 164.529C63.9952 163.985 68.1425 162.419 71.7972 158.306C75.0001 154.661 76.889 149.847 76.889 144.885C76.889 140.254 75.2875 137.177 73.1933 135.192C70.1957 132.322 66.6643 131.788 62.7633 132.25ZM59.8478 159.183C57.8767 159.416 55.2898 159.392 53.2366 157.402C51.9636 156.188 50.896 154.082 50.896 151.063C50.896 148.169 51.7583 144.841 53.6472 142.385C55.5772 139.841 58.3695 138.063 62.3116 137.596C64.2826 137.363 66.8696 137.388 68.9227 139.378C70.1957 140.591 71.2634 142.698 71.2634 145.717C71.2634 148.611 70.401 151.938 68.5121 154.395C66.5821 156.939 63.7898 158.717 59.8478 159.183ZM75.6096 161.866L82.344 161.069L91.5011 148.986L96.7572 159.363L103.163 158.605L95.6074 144.2L109.076 127.306L102.342 128.103L93.1436 140.232L87.9286 129.809L81.5227 130.567L89.0373 144.977L75.6096 161.866ZM106.23 158.242L111.856 157.576L114.073 145.736L118.631 145.196C120.766 144.944 123.6 144.236 126.022 141.964C127.624 140.452 129.718 137.682 129.718 133.174C129.718 129.908 128.527 128.188 127.665 127.38C125.694 125.546 123.066 125.65 121.054 125.889L112.143 126.943L106.23 158.242ZM116.742 131.692L120.356 131.264C121.259 131.157 122.327 131.113 123.23 131.999C124.01 132.775 124.092 133.799 124.092 134.585C124.092 136.611 123.148 137.798 122.573 138.362C121.834 139.07 120.725 139.656 119.329 139.821L115.141 140.317L116.742 131.692ZM121.768 156.403L128.173 155.645L132.567 147.02L144.065 145.659L145.543 153.589L151.579 152.874L145.543 122.99L139.507 123.705L121.768 156.403ZM135.318 141.402L141.314 129.776L143.285 140.459L135.318 141.402ZM154.792 152.494L160.418 151.828L162.923 138.507L173.722 137.229L171.217 150.55L176.843 149.884L182.756 118.586L177.13 119.251L174.749 131.814L163.949 133.092L166.331 120.53L160.705 121.196L154.792 152.494ZM207.381 115.671L197.362 116.857C194.364 117.212 191.449 117.805 188.779 120.354C186.316 122.713 185.084 126.001 185.084 128.937C185.084 131.914 186.11 133.777 187.219 134.804C188.246 135.758 189.724 136.41 191.408 136.5L181.224 149.366L188.205 148.54L198.101 135.17L198.183 135.16L195.842 147.636L201.468 146.97L207.381 115.671ZM200.729 121.751L198.963 131.057L194.939 131.533C194.036 131.64 192.804 131.786 191.777 130.833C191.243 130.317 190.751 129.465 190.751 128.06C190.751 126.157 191.613 124.732 192.516 123.881C193.255 123.215 194.446 122.495 196.253 122.281L200.729 121.751ZM213.237 114.978L207.324 146.277L212.95 145.611L230.278 122.471L226.213 144.041L231.839 143.375L237.752 112.076L232.126 112.742L214.798 135.882L218.863 114.312L213.237 114.978ZM219.52 106.791C219.479 109.443 221.203 112.381 225.967 111.817C229.991 111.341 233.481 108.695 234.303 105.042L229.58 105.601C229.252 106.963 228.102 107.843 226.501 108.033C224.735 108.242 224.283 107.096 224.242 106.232L219.52 106.791ZM247.304 141.545L252.93 140.879L257.817 114.994L268.616 113.716L263.73 139.601L269.355 138.935L275.268 107.636L253.218 110.246L247.304 141.545ZM272.587 138.552L278.992 137.794L283.386 129.17L294.884 127.809L296.362 135.738L302.398 135.024L296.362 105.139L290.326 105.854L272.587 138.552ZM286.137 123.551L292.133 111.925L294.104 122.608L286.137 123.551ZM324.896 101.762L319.27 102.428L316.642 116.385L311.55 116.987C310.441 117.119 307.69 117.444 307.69 114.798C307.69 114.178 307.772 113.63 307.895 112.954L309.661 103.565L304.036 104.231L302.311 113.408C302.106 114.466 301.982 115.432 301.982 116.424C301.982 117.706 302.311 123.25 310.523 122.278L315.615 121.675L313.357 133.727L318.983 133.061L324.896 101.762ZM324.859 132.365L330.485 131.7L333.072 117.996L340.094 130.562L346.664 129.785L338.369 115.467L352.372 98.5103L345.637 99.3074L333.77 114.151L336.398 100.401L330.772 101.067L324.859 132.365ZM356.236 98.0529L350.323 129.352L355.949 128.686L373.278 105.546L369.212 127.116L374.838 126.45L380.751 95.1514L375.126 95.8172L357.797 118.957L361.862 97.387L356.236 98.0529ZM396.217 93.3209L390.304 124.62L395.929 123.954L413.258 100.814L409.193 122.384L414.819 121.718L420.732 90.4194L415.106 91.0852L397.777 114.225L401.843 92.655L396.217 93.3209ZM433.118 96.9339L438.743 96.2681C438.99 95.1224 439.606 94.3052 440.181 93.7824C441.125 92.9263 442.234 92.6297 443.055 92.5325C443.876 92.4352 444.985 92.3867 445.888 93.1068C446.71 93.7952 446.874 94.6855 446.874 95.5952C446.874 96.4222 446.669 97.4389 445.642 98.4701C444.574 99.5061 443.466 99.7614 442.48 99.8781L439.852 100.189L438.867 105.599L441.536 105.283C442.562 105.161 443.589 105.164 444.451 105.971C444.903 106.414 445.313 107.192 445.313 108.598C445.313 110.335 444.492 111.549 443.794 112.21C442.891 113.103 441.412 113.733 439.975 113.903C438.456 114.082 437.306 113.598 436.69 112.844C436.197 112.241 435.951 111.36 435.951 110.533C435.951 110.285 435.992 110.032 436.033 109.779L430.407 110.445C430.325 111.034 430.325 111.571 430.325 112.15C430.325 115.458 431.845 117.181 433.118 118.105C434.924 119.421 436.978 119.55 439.113 119.298C441.495 119.016 444.78 118.337 447.449 115.789C449.461 113.855 450.939 110.992 450.939 107.684C450.939 106.237 450.57 104.503 449.707 103.406C449.132 102.688 448.147 102.019 446.915 101.751C448.393 101.08 449.666 100.061 450.57 98.962C451.719 97.5027 452.499 95.6323 452.499 93.4821C452.499 90.9184 451.391 89.437 450.487 88.6342C449.338 87.6125 447.367 86.7294 444.123 87.1133C441.536 87.4195 438.743 88.4116 436.731 90.3037C435.13 91.7751 433.693 94.1781 433.118 96.9339ZM450.634 117.479L457.04 116.721L461.434 108.096L472.931 106.735L474.41 114.665L480.446 113.951L474.41 84.0662L468.373 84.7806L450.634 117.479ZM464.185 102.478L470.18 90.8519L472.151 101.535L464.185 102.478ZM483.658 113.57L489.284 112.905L494.171 87.0201L503.533 85.9119L504.56 80.4977L489.572 82.2716L483.658 113.57ZM501.744 111.43L507.37 110.764L509.587 98.9236L514.145 98.3841C516.28 98.1314 519.114 97.4239 521.536 95.1523C523.138 93.6396 525.232 90.8694 525.232 86.3622C525.232 83.0956 524.041 81.3758 523.179 80.5682C521.208 78.734 518.58 78.8383 516.568 79.0764L507.657 80.1311L501.744 111.43ZM512.256 84.8795L515.87 84.4518C516.773 84.3449 517.841 84.3012 518.744 85.1867C519.524 85.9627 519.606 86.9867 519.606 87.7724C519.606 89.7985 518.662 90.9854 518.087 91.5496C517.348 92.2574 516.239 92.8434 514.843 93.0087L510.655 93.5044L512.256 84.8795ZM556.094 74.3982L549.524 75.1758L539.669 93.0476L534.659 76.9352L528.089 77.7128L535.439 99.5025L530.265 108.054L536.835 107.276L556.094 74.3982ZM572.938 72.4046L570.351 85.984L563.74 73.4932L557.334 74.2514L565.177 88.2091L551.421 105.55L558.401 104.724L569.612 89.9998L567.025 103.703L572.65 103.037L575.237 89.3339L581.684 101.968L588.254 101.191L580.452 86.7319L593.757 69.9405L587.023 70.7375L575.977 85.3182L578.563 71.7387L572.938 72.4046ZM589.463 101.048L595.869 100.289L600.263 91.6648L611.76 90.3039L613.238 98.2335L619.275 97.5191L613.238 67.6347L607.202 68.3491L589.463 101.048ZM603.014 86.0464L609.009 74.4204L610.98 85.1035L603.014 86.0464ZM628.4 65.8401L622.487 97.1389L628.113 96.473L645.442 73.3336L641.376 94.9032L647.002 94.2374L652.915 62.9386L647.289 63.6045L629.961 86.7439L634.026 65.1743L628.4 65.8401ZM634.683 57.6536C634.642 60.3048 636.367 63.2433 641.13 62.6795C645.154 62.2032 648.645 59.5572 649.466 55.9039L644.744 56.4628C644.415 57.8249 643.265 58.7053 641.664 58.8948C639.898 59.1038 639.446 57.9581 639.405 57.0947L634.683 57.6536ZM662.468 92.4069L668.093 91.741L670.68 78.0375L677.702 90.6037L684.272 89.8261L675.978 75.5084L689.98 58.5517L683.246 59.3488L671.379 74.192L674.007 60.4423L668.381 61.1081L662.468 92.4069ZM704.215 56.3293C699.616 56.8737 695.469 58.4396 691.814 62.5523C688.611 66.198 686.722 71.0114 686.722 75.9734C686.722 80.6046 688.324 83.6817 690.418 85.6667C693.416 88.5372 696.947 89.0703 700.848 88.6086C705.447 88.0642 709.595 86.4982 713.249 82.3856C716.452 78.7398 718.341 73.9264 718.341 68.9645C718.341 64.3333 716.74 61.2562 714.645 59.2712C711.648 56.4007 708.116 55.8676 704.215 56.3293ZM701.3 83.2623C699.329 83.4956 696.742 83.471 694.689 81.4811C693.416 80.2672 692.348 78.1607 692.348 75.1422C692.348 72.2477 693.21 68.9203 695.099 66.4639C697.029 63.9199 699.821 62.1421 703.764 61.6756C705.735 61.4423 708.322 61.4669 710.375 63.4568C711.648 64.6706 712.715 66.7772 712.715 69.7957C712.715 72.6902 711.853 76.0175 709.964 78.474C708.034 81.018 705.242 82.7957 701.3 83.2623ZM742.644 52.3185L736.074 53.0961L721.004 80.1859L718.129 80.5261L715.994 91.8606L721.62 91.1948L722.728 85.2746L744.656 82.6792L743.547 88.5994L749.173 87.9336L751.308 76.5991L748.434 76.9393L742.644 52.3185ZM727.574 79.4083L738.456 59.0994L742.521 77.6392L727.574 79.4083ZM759.37 50.3389L753.456 81.6376L764.461 80.3351C767.213 80.0095 770.046 78.9299 772.017 77.1666C773.742 75.6393 775.589 72.981 775.589 68.97C775.589 65.7861 774.563 63.8814 773.536 62.8452C771.606 60.9234 769.184 60.962 766.925 61.2294L762.696 61.7299L764.995 49.6731L759.37 50.3389ZM761.71 67.1394L766.063 66.6242C766.843 66.5319 768.198 66.4542 769.143 67.3761C769.635 67.8967 769.964 68.7675 769.964 69.9667C769.964 71.2072 769.348 72.6033 768.362 73.5469C767.664 74.2084 766.597 74.7896 765.118 74.9646L760.109 75.5575L761.71 67.1394ZM776.452 78.916L782.077 78.2501L787.991 46.9514L782.365 47.6172L776.452 78.916ZM302.947 159.126C301.223 153.004 296.254 150.615 289.93 151.363C285.619 151.873 281.307 153.418 277.611 157.576C274.408 161.222 272.602 166.026 272.602 171.029C272.602 174.999 273.751 178.212 276.297 180.681C279.336 183.588 282.826 184.085 286.563 183.642C293.626 182.806 298.759 178.684 301.469 172.823L294.94 173.595C292.928 176.48 289.766 177.971 286.851 178.316C283.73 178.685 281.8 177.673 280.568 176.496C278.556 174.583 278.227 171.852 278.227 170.157C278.227 167.221 279.008 163.986 280.896 161.488C282.744 158.995 285.537 157.176 289.438 156.714C290.752 156.559 295.022 156.219 296.541 159.884L302.947 159.126ZM322.726 178.618L328.188 177.972L334.101 146.673L327.818 147.416L315.54 161.481L319.154 164.486L327.161 155.185L322.726 178.618ZM356.849 176.109L362.474 175.443L363.295 171.046C365.882 170.781 369.619 169.884 372.494 167.931C375.82 165.718 379.269 161.63 379.269 154.848C379.269 150.548 377.832 147.989 376.271 146.519C374.588 144.941 371.837 143.736 368.387 143.979L369.168 140.041L363.542 140.707L362.762 144.645C360.175 144.91 356.438 145.807 353.564 147.76C350.237 149.973 346.788 154.061 346.788 160.843C346.788 165.143 348.225 167.702 349.786 169.171C351.469 170.75 354.221 171.954 357.67 171.712L356.849 176.109ZM358.696 166.297C356.397 166.652 354.878 165.674 354.179 165.013C352.742 163.653 352.414 161.665 352.414 160.136C352.414 155.794 354.467 153.318 355.863 152.202C357.67 150.789 360.134 150.208 361.735 150.059L358.696 166.297ZM367.361 149.394C369.66 149.039 371.18 150.017 371.878 150.678C373.315 152.038 373.643 154.025 373.643 155.555C373.643 159.897 371.59 162.373 370.194 163.489C368.387 164.902 365.924 165.483 364.322 165.632L367.361 149.394ZM380.68 171.759L396.776 169.854L397.803 164.439L387.332 165.679L388.769 158.065L398.789 156.88L399.815 151.465L389.796 152.651L391.192 145.208L401.663 143.969L402.69 138.555L386.593 140.46L380.68 171.759ZM402.013 169.234L412.361 168.009C414.702 167.732 417.289 167.054 419.629 164.792C421.313 163.187 423.161 160.487 423.161 156.517C423.161 153.003 421.436 151.305 419.096 150.837C422.298 149.3 424.228 146.302 424.228 142.704C424.228 140.389 423.366 138.919 422.175 138.027C420.286 136.596 417.617 136.788 416.18 136.958L407.926 137.935L402.013 169.234ZM408.666 163.154L410.226 154.864L413.922 154.427C414.825 154.32 415.934 154.313 416.755 155.167C417.412 155.833 417.535 156.728 417.535 157.431C417.535 159.292 416.673 160.51 416.016 161.167C415.236 161.921 414.127 162.507 412.854 162.658L408.666 163.154ZM411.252 149.45L412.525 142.683L415.236 142.363C415.934 142.28 417.042 142.19 417.782 142.806C418.233 143.166 418.603 143.866 418.603 144.859C418.603 146.058 418.11 147.108 417.371 147.816C416.837 148.334 415.934 148.896 414.414 149.076L411.252 149.45ZM425.833 166.414L431.459 165.749L433.676 153.908L438.234 153.369C440.369 153.116 443.203 152.408 445.626 150.137C447.227 148.624 449.321 145.854 449.321 141.347C449.321 138.08 448.13 136.36 447.268 135.553C445.297 133.719 442.669 133.823 440.657 134.061L431.746 135.116L425.833 166.414ZM436.345 139.864L439.959 139.436C440.862 139.33 441.93 139.286 442.833 140.171C443.613 140.947 443.696 141.971 443.696 142.757C443.696 144.783 442.751 145.97 442.176 146.534C441.437 147.242 440.328 147.828 438.932 147.993L434.744 148.489L436.345 139.864ZM441.371 164.575L447.777 163.817L452.17 155.193L463.668 153.832L465.146 161.761L471.183 161.047L465.146 131.163L459.11 131.877L441.371 164.575ZM454.922 149.574L460.917 137.948L462.888 148.631L454.922 149.574ZM495.132 127.613L488.562 128.391L471.767 160.978L478.337 160.2L490.944 134.394L494.845 158.246L500.758 157.547L495.132 127.613ZM528.628 123.649L518.609 124.835C515.611 125.19 512.696 125.783 510.027 128.332C507.563 130.691 506.331 133.979 506.331 136.915C506.331 139.892 507.358 141.755 508.466 142.782C509.493 143.736 510.971 144.388 512.655 144.478L502.471 157.344L509.452 156.517L519.348 143.148L519.43 143.138L517.09 155.613L522.715 154.948L528.628 123.649ZM521.976 129.729L520.21 139.035L516.186 139.511C515.283 139.618 514.051 139.764 513.024 138.81C512.491 138.295 511.998 137.443 511.998 136.037C511.998 134.135 512.86 132.71 513.764 131.859C514.503 131.192 515.694 130.473 517.5 130.259L521.976 129.729Z" fill="#FFE500"/>
</svg>
