<svg width="340" height="386" viewBox="0 0 340 386" fill="none" xmlns="http://www.w3.org/2000/svg">
<path d="M42.9839 283.898L58.3393 169.587C59.2607 162.727 65.5682 157.914 72.4274 158.835L285.986 187.522C292.883 188.449 297.704 194.817 296.724 201.707L280.413 316.4C279.442 323.226 273.14 327.985 266.309 327.051L53.7061 297.982C46.8605 297.046 42.0641 290.746 42.9839 283.898Z" fill="#F4971A"/>
<path d="M97.8687 221.147C98.1663 219.895 98.8112 218.91 100.128 218.004C101.853 216.843 103.606 216.745 105.249 216.937C106.294 217.059 107.854 217.317 109.059 218.668C109.727 219.428 110.409 220.719 110.191 222.586C109.99 224.303 109.118 225.942 107.941 226.941C105.764 228.73 102.909 228.548 101.415 228.374L99.2496 228.121L96.3585 237.321L98.0762 237.522C100.391 237.792 102.847 238.155 104.68 239.958C105.63 240.902 106.989 242.877 106.579 246.387C106.23 249.375 104.782 251.401 103.264 252.738C100.477 255.213 97.3624 255.303 95.0473 255.033C93.255 254.824 91.1154 254.347 89.5237 252.42C88.5343 251.169 87.6806 249.404 87.916 247.388C87.9771 246.865 88.0381 246.342 88.1738 245.828L78.2413 244.668C78.0533 245.63 77.9399 246.601 77.8266 247.572C77.3033 252.053 78.7866 255.557 80.6821 258.125C84.1431 262.844 89.0197 263.867 92.6043 264.286C96.7864 264.774 103.503 264.953 109.424 260.27C114.595 256.18 116.119 250.908 116.599 246.8C117.279 240.975 115.566 235.552 109.739 233.585C115.716 232.315 119.67 227.629 120.342 221.878C120.9 217.099 118.991 213.999 117.381 212.222C114.295 208.833 110.082 207.963 107.244 207.632C101.717 206.986 97.3348 208.216 94.1083 210.564C91.7906 212.262 89.0171 215.268 87.9362 219.987L97.8687 221.147ZM122.001 247.583C121.545 248.892 121.314 250.228 121.157 251.572C119.988 261.579 124.843 267.975 134.543 269.183C150.964 271.176 155.976 261.315 158.333 254.096L164.637 234.469C165.092 233.16 165.324 231.824 165.481 230.48C166.649 220.473 161.795 214.077 152.095 212.869C135.674 210.876 130.662 220.737 128.305 227.956L122.001 247.583ZM138.237 229.116C139.293 225.908 141.586 221.18 148.905 222.034C153.759 222.601 155.967 225.736 155.47 229.992C155.339 231.113 155.059 232.215 154.704 233.309L148.4 252.936C147.336 256.218 144.985 260.789 137.882 260.035C130.33 259.229 131.045 253.105 131.168 252.059C131.298 250.939 131.579 249.837 131.933 248.742L138.237 229.116ZM163.79 252.462C163.334 253.772 163.103 255.107 162.946 256.451C161.777 266.459 166.632 272.854 176.332 274.063C192.753 276.056 197.765 266.195 200.122 258.976L206.426 239.349C206.881 238.039 207.113 236.704 207.27 235.36C208.438 225.353 203.584 218.957 193.884 217.748C177.463 215.755 172.451 225.616 170.094 232.835L163.79 252.462ZM180.026 233.995C181.082 230.788 183.375 226.059 190.694 226.914C195.548 227.481 197.756 230.615 197.259 234.872C197.128 235.992 196.848 237.095 196.493 238.189L190.189 257.816C189.125 261.098 186.774 265.668 179.671 264.915C172.119 264.108 172.834 257.985 172.957 256.939C173.087 255.819 173.368 254.716 173.722 253.622L180.026 233.995ZM221.295 277.95L223.608 271.105L218.53 270.512L220.852 263.592L225.93 264.185L227.77 258.798L222.617 258.196L225.724 249.096L230.877 249.698L238.872 225.954L254.481 227.777C257.866 228.172 260.582 229.12 262.627 230.62C264.672 232.121 266.098 233.953 266.906 236.116C267.719 238.23 267.986 240.481 267.706 242.871C267.445 245.111 266.826 247.386 265.85 249.694C264.88 251.953 263.429 254.004 261.498 255.848C259.622 257.647 257.14 259.023 254.052 259.974C251.019 260.882 247.287 261.077 242.856 260.559L238.599 260.062L236.759 265.449L246.841 266.626L244.519 273.547L234.437 272.369L232.123 279.215L221.295 277.95ZM244.693 251.311C247.63 251.654 250.209 251.173 252.431 249.868C254.652 248.563 255.955 246.268 256.339 242.982C256.757 239.397 254.925 237.367 250.843 236.89L246.586 236.393L241.705 250.963L244.693 251.311Z" fill="white"/>
<g style="mix-blend-mode:multiply" filter="url(#filter0_f)">
<path d="M263.703 195.122L66.9609 215.281L86.0809 189.946L182.789 158.89L263.703 195.122Z" fill="url(#paint0_linear)"/>
</g>
<path d="M54.8845 206.102L11.2708 99.3166C8.65544 92.9132 11.7229 85.6018 18.1242 82.9813L217.3 1.4447C223.744 -1.19314 231.102 1.92761 233.685 8.39358L276.661 115.986C279.217 122.385 276.127 129.647 269.744 132.243L71.2057 212.972C64.8016 215.576 57.4985 212.502 54.8845 206.102Z" fill="#009640"/>
<path d="M81.0306 164.942L90.9246 160.957L79.4606 101.592L68.0787 106.177L54.976 137.827L64.0098 141.364L72.4625 120.493L81.0306 164.942ZM97.8924 136.707C98.1343 138.166 98.5993 139.535 99.1387 140.874C103.154 150.842 110.967 154.353 120.668 150.531C137.064 144.013 136.722 132.218 135.243 124.254L131.124 102.655C130.883 101.196 130.418 99.8268 129.878 98.4877C125.862 88.5193 118.05 85.0088 108.349 88.8303C91.9531 95.3489 92.2947 107.143 93.7738 115.107L97.8924 136.707ZM103.668 111.122C103.019 107.579 102.752 101.98 110.042 99.0427C114.878 97.0947 118.546 98.9027 120.254 103.143C120.703 104.259 121.004 105.435 121.23 106.64L125.349 128.24C126.028 131.857 126.161 137.338 119.123 140.259C111.64 143.36 109.183 137.26 108.763 136.218C108.314 135.103 108.013 133.927 107.786 132.721L103.668 111.122ZM139.519 119.938C139.761 121.396 140.226 122.766 140.766 124.105C144.781 134.073 152.594 137.583 162.295 133.762C178.691 127.243 178.349 115.449 176.87 107.485L172.751 85.8855C172.51 84.4266 172.045 83.0576 171.505 81.7185C167.489 71.7501 159.677 68.2396 149.976 72.0611C133.58 78.5797 133.922 90.374 135.401 98.3381L139.519 119.938ZM145.295 94.3523C144.646 90.8094 144.379 85.2103 151.669 82.2735C156.505 80.3256 160.173 82.1335 161.881 86.3738C162.33 87.4897 162.631 88.6655 162.857 89.8712L166.976 111.471C167.655 115.088 167.788 120.568 160.751 123.49C153.267 126.591 150.81 120.491 150.39 119.449C149.941 118.333 149.64 117.158 149.413 115.952L145.295 94.3523ZM206.388 114.443L205.059 106.851L200 108.889L198.641 101.222L203.699 99.1845L202.672 93.2L197.539 95.2678L195.802 85.1598L200.935 83.092L196.298 56.7727L211.846 50.5094C215.218 49.1509 218.245 48.652 220.927 49.0128C223.608 49.3736 225.879 50.3609 227.74 51.9747C229.581 53.5389 230.98 55.5112 231.939 57.8918C232.838 60.1235 233.42 62.5695 233.685 65.2297C233.93 67.8403 233.618 70.5019 232.751 73.2146C231.914 75.8576 230.292 78.4132 227.885 80.8814C225.508 83.28 222.113 85.3684 217.699 87.1465L213.459 88.8547L214.486 94.8391L224.529 90.7934L225.888 98.4599L215.845 102.506L217.174 110.098L206.388 114.443ZM214.697 77.5479C217.623 76.3692 219.793 74.6015 221.207 72.245C222.621 69.8885 222.669 67.0736 221.35 63.8004C219.912 60.2296 217.159 59.2633 213.092 60.9016L208.852 62.6098L211.721 78.7466L214.697 77.5479Z" fill="white"/>
<defs>
<filter id="filter0_f" x="61.9484" y="153.878" width="206.767" height="66.416" filterUnits="userSpaceOnUse" color-interpolation-filters="sRGB">
<feFlood flood-opacity="0" result="BackgroundImageFix"/>
<feBlend mode="normal" in="SourceGraphic" in2="BackgroundImageFix" result="shape"/>
<feGaussianBlur stdDeviation="2.50626" result="effect1_foregroundBlur"/>
</filter>
<linearGradient id="paint0_linear" x1="85.5324" y1="200.187" x2="211.129" y2="186.888" gradientUnits="userSpaceOnUse">
<stop stop-color="#C4C4C4"/>
<stop offset="1" stop-color="#C4C4C4" stop-opacity="0"/>
</linearGradient>
</defs>
</svg>
