<svg width="307" height="290" viewBox="0 0 307 290" fill="none" xmlns="http://www.w3.org/2000/svg">
<path d="M95.3106 270.668L82.4192 178.228C81.2195 169.625 87.2209 161.679 95.8237 160.479L276.361 135.302C285.01 134.096 292.987 140.168 294.126 148.827L306.357 241.791C307.486 250.37 301.473 258.249 292.9 259.424L113.023 284.077C104.432 285.255 96.5083 279.256 95.3106 270.668Z" fill="#ED1B31"/>
<path d="M132.004 211.919C131.972 211.091 132.202 210.369 132.862 209.58C133.73 208.561 134.8 208.197 135.852 208.032C136.521 207.927 137.533 207.817 138.514 208.447C139.06 208.802 139.706 209.484 139.893 210.68C140.066 211.779 139.809 212.947 139.252 213.769C138.212 215.255 136.41 215.636 135.454 215.787L134.067 216.005L133.866 222.209L134.966 222.037C136.448 221.804 138.033 221.604 139.482 222.405C140.234 222.826 141.418 223.815 141.772 226.063C142.072 227.975 141.525 229.482 140.815 230.573C139.515 232.59 137.599 233.185 136.117 233.418C134.97 233.598 133.561 233.673 132.24 232.753C131.41 232.149 130.576 231.202 130.373 229.911C130.32 229.577 130.268 229.242 130.263 228.9L123.904 229.899C123.954 230.528 124.051 231.15 124.149 231.771C124.6 234.64 126.126 236.556 127.745 237.82C130.707 240.147 133.908 239.938 136.203 239.578C138.881 239.157 143.076 238.106 145.937 234.178C148.436 230.748 148.469 227.215 148.056 224.585C147.47 220.856 145.469 217.79 141.516 217.578C145.003 215.756 146.643 212.167 146.065 208.485C145.584 205.425 143.864 203.834 142.559 203.01C140.059 201.443 137.296 201.632 135.479 201.917C131.941 202.473 129.436 203.994 127.842 206.008C126.698 207.462 125.499 209.806 125.645 212.918L132.004 211.919Z" fill="white"/>
<path d="M157.015 223.275C156.959 224.166 157.047 225.034 157.182 225.895C158.188 232.302 162.305 235.428 168.528 234.499C179.055 232.894 180.457 225.912 180.669 221.029L181.182 207.769C181.238 206.878 181.151 206.01 181.016 205.149C180.009 198.742 175.892 195.617 169.669 196.545C159.143 198.15 157.741 205.132 157.528 210.015L157.015 223.275ZM163.888 209.016C163.987 206.845 164.591 203.516 169.277 202.78C172.385 202.292 174.296 203.853 174.724 206.579C174.837 207.296 174.854 208.028 174.823 208.768L174.31 222.028C174.218 224.247 173.551 227.487 169.016 228.249C164.195 229.055 163.579 225.135 163.473 224.465C163.361 223.748 163.344 223.016 163.374 222.276L163.888 209.016Z" fill="white"/>
<path d="M183.77 219.072C183.714 219.962 183.801 220.83 183.937 221.691C184.943 228.098 189.06 231.224 195.283 230.295C205.81 228.69 207.211 221.709 207.424 216.825L207.937 203.565C207.993 202.674 207.906 201.806 207.77 200.945C206.764 194.538 202.647 191.413 196.424 192.342C185.897 193.947 184.496 200.928 184.283 205.812L183.77 219.072ZM190.642 204.812C190.742 202.641 191.346 199.313 196.032 198.576C199.14 198.088 201.051 199.65 201.479 202.375C201.592 203.092 201.609 203.824 201.578 204.564L201.065 217.824C200.972 220.043 200.306 223.284 195.771 224.045C190.949 224.852 190.333 220.931 190.228 220.262C190.116 219.544 190.098 218.812 190.129 218.072L190.642 204.812Z" fill="white"/>
<path d="M210.525 214.868C210.469 215.758 210.556 216.627 210.692 217.487C211.698 223.894 215.815 227.02 222.038 226.091C232.564 224.486 233.966 217.505 234.179 212.621L234.692 199.361C234.748 198.47 234.661 197.602 234.525 196.742C233.519 190.335 229.402 187.209 223.179 188.138C212.652 189.743 211.251 196.724 211.038 201.608L210.525 214.868ZM217.397 200.609C217.497 198.437 218.101 195.109 222.787 194.373C225.894 193.884 227.806 195.446 228.234 198.171C228.346 198.888 228.364 199.62 228.333 200.36L227.82 213.62C227.727 215.839 227.061 219.08 222.526 219.841C217.704 220.648 217.088 216.727 216.983 216.058C216.87 215.341 216.853 214.608 216.884 213.869L217.397 200.609Z" fill="white"/>
<path d="M250.589 220.723L250.839 216.078L247.588 216.589L247.831 211.897L251.082 211.386L251.291 207.727L247.992 208.246L248.344 202.066L251.643 201.548L252.493 185.443L262.486 183.872C264.653 183.532 266.501 183.65 268.029 184.226C269.556 184.803 270.758 185.692 271.632 186.894C272.502 188.063 273.057 189.413 273.298 190.943C273.523 192.378 273.533 193.895 273.327 195.495C273.116 197.064 272.571 198.586 271.693 200.063C270.841 201.504 269.54 202.786 267.79 203.91C266.066 204.998 263.786 205.764 260.949 206.21L258.224 206.638L258.015 210.297L264.47 209.282L264.227 213.975L257.772 214.989L257.522 219.634L250.589 220.723ZM260.488 200.158C262.369 199.863 263.885 199.118 265.037 197.925C266.188 196.731 266.599 195.083 266.268 192.979C265.908 190.684 264.421 189.742 261.807 190.152L259.081 190.58L258.576 200.459L260.488 200.158Z" fill="white"/>
<g style="mix-blend-mode:multiply" filter="url(#filter0_f)">
<path d="M257.789 202.772L86.2675 175.433L106.937 161.114L249.242 169.053L257.789 202.772Z" fill="url(#paint0_linear)"/>
</g>
<path d="M29.772 156.27L34.8314 63.064C35.3019 54.3956 42.7069 47.7479 51.3756 48.2114L233.171 57.9321C241.897 58.3987 248.57 65.8893 248.028 74.6111L242.222 168.206C241.686 176.837 234.282 183.417 225.648 182.935L44.5996 172.826C35.9365 172.342 29.3017 164.934 29.772 156.27Z" fill="#FFE500"/>
<path d="M74.8601 100.463C75.0079 99.6322 75.3929 98.9638 76.2207 98.3216C77.3061 97.4972 78.4492 97.3672 79.5315 97.4312C80.2202 97.4719 81.2503 97.5821 82.0893 98.4216C82.5551 98.8934 83.0497 99.7124 82.9771 100.942C82.9102 102.074 82.4006 103.179 81.6683 103.876C80.3107 105.129 78.4356 105.117 77.4517 105.059L76.0251 104.974L74.4781 111.103L75.6096 111.17C77.1346 111.26 78.7551 111.405 80.0223 112.517C80.679 113.099 81.6423 114.34 81.5057 116.652C81.3894 118.62 80.518 120 79.5744 120.932C77.8435 122.656 75.8091 122.832 74.284 122.742C73.1034 122.672 71.6855 122.44 70.5717 121.239C69.8774 120.458 69.2526 119.335 69.3311 118.006C69.3514 117.662 69.3718 117.318 69.4413 116.976L62.8985 116.59C62.8116 117.226 62.7738 117.866 62.736 118.505C62.5616 121.457 63.6635 123.694 65 125.303C67.4416 128.262 70.671 128.749 73.0323 128.888C75.7871 129.051 80.1887 128.916 83.8878 125.63C87.1181 122.76 87.9177 119.253 88.0776 116.547C88.3043 112.71 86.9799 109.225 83.0938 108.157C86.9573 107.101 89.3687 103.887 89.5925 100.099C89.7786 96.9506 88.4132 94.9941 87.2936 93.8912C85.147 91.7898 82.3574 91.3781 80.4881 91.2676C76.8477 91.0525 74.026 92.0212 72.0028 93.6788C70.5498 94.8765 68.8476 96.948 68.3172 100.076L74.8601 100.463Z" fill="#009640"/>
<path d="M95.464 117.082C95.2149 117.956 95.1134 118.839 95.0611 119.724C94.6715 126.316 98.0881 130.319 104.48 130.746C115.3 131.435 118.21 124.795 119.482 119.982L122.871 106.903C123.12 106.029 123.222 105.147 123.274 104.261C123.664 97.6694 120.247 93.6664 113.855 93.2393C103.035 92.5506 100.125 99.1911 98.8533 104.003L95.464 117.082ZM105.396 104.39C105.967 102.251 107.29 99.0715 112.111 99.3563C115.309 99.5453 116.871 101.513 116.705 104.318C116.661 105.055 116.519 105.788 116.328 106.517L112.939 119.596C112.366 121.783 110.999 124.862 106.322 124.635C101.351 124.391 101.589 120.357 101.63 119.668C101.674 118.93 101.816 118.198 102.007 117.469L105.396 104.39Z" fill="#009640"/>
<path d="M122.992 118.709C122.742 119.583 122.641 120.465 122.589 121.351C122.199 127.943 125.616 131.946 132.008 132.373C142.828 133.062 145.738 126.421 147.009 121.609L150.399 108.53C150.648 107.656 150.749 106.774 150.802 105.888C151.191 99.296 147.775 95.293 141.382 94.8659C130.562 94.1772 127.652 100.818 126.381 105.63L122.992 118.709ZM132.924 106.016C133.494 103.878 134.818 100.698 139.639 100.983C142.836 101.172 144.398 103.14 144.233 105.944C144.189 106.682 144.047 107.414 143.856 108.143L140.467 121.222C139.893 123.41 138.526 126.489 133.85 126.262C128.878 126.017 129.117 121.983 129.158 121.295C129.201 120.557 129.343 119.825 129.534 119.096L132.924 106.016Z" fill="#009640"/>
<path d="M150.519 120.336C150.27 121.209 150.168 122.092 150.116 122.977C149.727 129.569 153.143 133.572 159.535 134C170.355 134.688 173.265 128.048 174.537 123.236L177.926 110.157C178.175 109.283 178.277 108.4 178.329 107.515C178.719 100.923 175.302 96.9196 168.91 96.4925C158.09 95.8038 155.18 102.444 153.908 107.256L150.519 120.336ZM160.451 107.643C161.022 105.505 162.345 102.325 167.166 102.61C170.364 102.799 171.926 104.767 171.76 107.571C171.716 108.309 171.574 109.041 171.383 109.77L167.994 122.849C167.421 125.037 166.054 128.115 161.377 127.888C156.406 127.644 156.644 123.61 156.685 122.921C156.729 122.183 156.871 121.451 157.062 120.722L160.451 107.643Z" fill="#009640"/>
<path d="M189.103 134.858L190.36 130.292L187.015 130.094L188.275 125.479L191.62 125.677L192.622 122.083L189.228 121.882L190.919 115.812L194.314 116.012L198.656 100.175L208.937 100.783C211.167 100.915 212.98 101.433 214.374 102.338C215.769 103.244 216.771 104.389 217.38 105.774C217.991 107.127 218.25 108.59 218.157 110.164C218.07 111.64 217.75 113.152 217.198 114.699C216.648 116.213 215.776 117.609 214.581 118.888C213.421 120.136 211.849 121.129 209.863 121.868C207.913 122.575 205.478 122.843 202.559 122.67L199.755 122.504L198.753 126.098L205.394 126.491L204.134 131.106L197.493 130.714L196.236 135.28L189.103 134.858ZM203.414 116.55C205.349 116.664 207.019 116.253 208.424 115.316C209.829 114.378 210.595 112.827 210.723 110.663C210.862 108.302 209.588 107.042 206.898 106.883L204.094 106.717L201.447 116.434L203.414 116.55Z" fill="#009640"/>
<defs>
<filter id="filter0_f" x="80.8473" y="155.694" width="182.361" height="52.4986" filterUnits="userSpaceOnUse" color-interpolation-filters="sRGB">
<feFlood flood-opacity="0" result="BackgroundImageFix"/>
<feBlend mode="normal" in="SourceGraphic" in2="BackgroundImageFix" result="shape"/>
<feGaussianBlur stdDeviation="2.71009" result="effect1_foregroundBlur"/>
</filter>
<linearGradient id="paint0_linear" x1="102.603" y1="169.132" x2="208.554" y2="206.192" gradientUnits="userSpaceOnUse">
<stop stop-color="#C4C4C4"/>
<stop offset="1" stop-color="#C4C4C4" stop-opacity="0"/>
</linearGradient>
</defs>
</svg>
