<svg width="25" height="23" viewBox="0 0 25 23" fill="none" xmlns="http://www.w3.org/2000/svg">
<path d="M23.3516 6.11816H19.3346C20.0167 5.39521 20.4187 4.4721 20.4572 3.53991C20.4957 2.60771 20.1678 1.73782 19.5414 1.1103C18.915 0.482783 18.0381 0.145684 17.0921 0.168787C16.1462 0.191889 15.2036 0.573424 14.4596 1.23441C14.1616 1.50914 13.9055 1.82473 13.7012 2.16895C13.5769 1.82473 13.3941 1.50912 13.16 1.23436C12.5696 0.573382 11.7158 0.191864 10.7752 0.168776C9.83462 0.145688 8.87933 0.482799 8.10707 1.11033C7.33482 1.73786 6.80473 2.60775 6.62653 3.53993C6.44834 4.47212 6.63569 5.39522 7.14979 6.11816H3.13275C2.64537 6.1187 2.15585 6.31073 1.77158 6.6521C1.38732 6.99348 1.13969 7.45633 1.08302 7.9391L0.659703 11.581C0.60414 12.0638 0.744173 12.5266 1.04908 12.868C1.35399 13.2094 1.79887 13.4014 2.28612 13.402L1.4395 20.6857C1.38394 21.1685 1.52397 21.6314 1.82888 21.9727C2.13379 22.3141 2.57866 22.5061 3.06592 22.5067H19.6086C20.096 22.5061 20.5855 22.3141 20.9698 21.9727C21.3541 21.6314 21.6017 21.1685 21.6584 20.6857L22.505 13.402C22.9924 13.4014 23.4819 13.2094 23.8662 12.868C24.2504 12.5266 24.4981 12.0638 24.5547 11.581L24.978 7.9391C25.0336 7.45633 24.8936 6.99348 24.5887 6.6521C24.2838 6.31073 23.8389 6.1187 23.3516 6.11816ZM15.6097 2.52202C15.8 2.35286 16.0182 2.21866 16.2519 2.12709C16.4856 2.03552 16.7301 1.98837 16.9715 1.98834C17.2129 1.9883 17.4465 2.03539 17.6589 2.1269C17.8714 2.21841 18.0584 2.35255 18.2095 2.52167C18.3605 2.69079 18.4726 2.89157 18.5393 3.11254C18.606 3.33351 18.626 3.57034 18.5982 3.80951C18.5704 4.04869 18.4952 4.28551 18.3771 4.50646C18.259 4.72741 18.1002 4.92815 17.9098 5.09723C17.2769 5.65958 15.5991 5.97537 14.2049 6.07934C14.4691 4.70996 14.9767 3.08431 15.6097 2.52202ZM9.11109 2.52202C9.49572 2.18104 9.98541 1.98955 10.4727 1.98955C10.9601 1.98954 11.4052 2.18102 11.7106 2.52199C12.2129 3.08434 12.3426 4.71013 12.2885 6.07931C10.9183 5.97531 9.31408 5.65953 8.81188 5.09723C8.50742 4.75547 8.36794 4.29242 8.42404 3.80965C8.48013 3.32688 8.72721 2.86381 9.11109 2.52202ZM22.7166 11.581H13.5263L12.5738 19.7753C12.5457 20.0167 12.422 20.2483 12.2298 20.4191C12.0376 20.5898 11.7927 20.6857 11.5489 20.6857C11.3052 20.6857 11.0826 20.5898 10.9301 20.4191C10.7776 20.2483 10.7077 20.0167 10.7357 19.7753L11.6882 11.581H2.49778L2.9211 7.9391H12.1115L11.6882 11.581H13.5263L13.9496 7.9391H23.14L22.7178 11.5809L22.7166 11.581Z" fill="white"/>
</svg>
