<svg width="25" height="23" viewBox="0 0 25 23" fill="none" xmlns="http://www.w3.org/2000/svg">
<path d="M16.4348 22.5843L21.1053 22.5842C21.5747 22.5836 22.0457 22.4018 22.4151 22.0785C22.7845 21.7553 23.0221 21.317 23.0758 20.8598L23.5475 16.8021C23.564 16.6603 23.5443 16.5207 23.4902 16.3957C23.4362 16.2706 23.3494 16.164 23.2376 16.0852C23.1257 16.0065 22.9923 15.958 22.8491 15.9441C22.7059 15.9301 22.5574 15.9512 22.4166 16.0055C22.0884 16.132 21.7447 16.1968 21.4054 16.1963C19.9414 16.1963 18.8893 15.0008 19.0601 13.5313C19.2309 12.0619 20.561 10.8664 22.0249 10.8664C22.3643 10.8658 22.6929 10.9307 22.9918 11.0572C23.1199 11.1115 23.2636 11.1325 23.41 11.1186C23.5564 11.1047 23.7011 11.0562 23.8313 10.9774C23.9614 10.8987 24.073 10.792 24.1561 10.667C24.2392 10.542 24.2913 10.4024 24.3078 10.2606L24.7794 6.20287C24.832 5.7457 24.6963 5.3074 24.402 4.98413C24.1078 4.66086 23.679 4.47903 23.2098 4.47853L19.2032 4.47864C19.236 4.33544 19.2608 4.19149 19.2775 4.04744C19.3971 3.01846 19.0922 2.03162 18.4299 1.30402C17.7676 0.576425 16.8021 0.167664 15.7459 0.167664C14.6897 0.167664 13.6292 0.576425 12.7978 1.30402C11.9664 2.03162 11.4321 3.01846 11.3125 4.04744C11.2957 4.19149 11.287 4.33544 11.2864 4.47864L7.27986 4.47853C6.81053 4.47904 6.33949 4.66088 5.97009 4.98414C5.60069 5.30741 5.3631 5.74571 5.30943 6.20287L4.9059 9.67503C4.76076 9.65932 4.61393 9.65148 4.46608 9.65156C3.40985 9.65156 2.34938 10.0603 1.51794 10.7879C0.686507 11.5155 0.152219 12.5024 0.0326159 13.5313C-0.0869873 14.5603 0.217891 15.5472 0.880182 16.2748C1.54247 17.0024 2.50792 17.4111 3.56415 17.4111C3.71198 17.4112 3.86064 17.4034 4.00943 17.3876L3.60579 20.8598C3.55318 21.317 3.68887 21.7553 3.98311 22.0785C4.27735 22.4018 4.7061 22.5836 5.1753 22.5842L9.84595 22.5843" fill="white"/>
</svg>
