<svg width="47" height="48" viewBox="0 0 47 48" fill="none" xmlns="http://www.w3.org/2000/svg">
<path d="M32.0174 21.8924C32.0174 24.0474 31.3784 26.154 30.1812 27.9458C28.9839 29.7376 27.2822 31.1341 25.2913 31.9588C23.3004 32.7835 21.1096 32.9993 18.996 32.5788C16.8824 32.1584 14.941 31.1207 13.4172 29.5969C11.8934 28.0731 10.8557 26.1317 10.4353 24.0181C10.0149 21.9045 10.2306 19.7138 11.0553 17.7228C11.88 15.7319 13.2765 14.0302 15.0683 12.833C16.8601 11.6357 18.9667 10.9967 21.1217 10.9967C24.0104 11 26.7799 12.149 28.8225 14.1916C30.8652 16.2342 32.0141 19.0037 32.0174 21.8924ZM41.7603 42.5322C41.4878 42.8047 41.1183 42.9577 40.733 42.9577C40.3476 42.9577 39.9781 42.8047 39.7056 42.5322L31.8565 34.6831C28.5552 37.4548 24.3113 38.845 20.0098 38.5639C15.7084 38.2828 11.6816 36.352 8.76905 33.1742C5.85651 29.9964 4.28313 25.817 4.37702 21.5074C4.47091 17.1979 6.22482 13.0909 9.273 10.043C12.3212 6.99506 16.4283 5.2415 20.7379 5.14798C25.0474 5.05447 29.2268 6.62821 32.4043 9.54102C35.5818 12.4538 37.5122 16.4809 37.793 20.7823C38.0737 25.0837 36.6831 29.3275 33.9112 32.6286L41.7603 40.4777C42.0327 40.7502 42.1858 41.1197 42.1858 41.505C42.1858 41.8903 42.0327 42.2598 41.7603 42.5322ZM21.1217 35.6937C23.8513 35.6937 26.5196 34.8843 28.7892 33.3678C31.0589 31.8513 32.8278 29.6958 33.8724 27.174C34.917 24.6521 35.1903 21.8771 34.6578 19.1999C34.1252 16.5228 32.8108 14.0636 30.8806 12.1335C28.9505 10.2033 26.4913 8.88888 23.8142 8.35635C21.137 7.82382 18.362 8.09714 15.8401 9.14172C13.3183 10.1863 11.1628 11.9553 9.64632 14.2249C8.12982 16.4945 7.32039 19.1628 7.32039 21.8924C7.32453 25.5515 8.77991 29.0595 11.3673 31.6469C13.9546 34.2342 17.4626 35.6896 21.1217 35.6937Z" fill="#FFE500"/>
</svg>
