<svg width="249" height="277" viewBox="0 0 249 277" fill="none" xmlns="http://www.w3.org/2000/svg">
<path fill-rule="evenodd" clip-rule="evenodd" d="M86.4802 17.3146L162.779 9.29519C232.414 1.97635 248.901 16.8219 248.901 86.8395V163.559C248.901 233.577 232.414 251.888 162.779 259.207L86.4802 267.226C16.8461 274.545 0.358398 259.7 0.358398 189.682V112.962C0.358398 42.9448 16.8461 24.6334 86.4802 17.3146Z" fill="#4680C2"/>
<path fill-rule="evenodd" clip-rule="evenodd" d="M203.823 91.048C205.051 87.0388 203.823 84.346 198.386 84.9175L180.319 86.8164C175.759 87.2957 173.654 89.986 172.426 92.7606C172.426 92.7606 163.13 116.313 150.15 132.315C145.941 136.991 144.011 138.604 141.731 138.844C140.503 138.973 138.925 137.728 138.925 133.848V97.6927C138.925 93.1071 137.521 91.1382 133.663 91.5438L105.248 94.5303C102.441 94.8253 100.687 97.126 100.687 99.2424C100.687 103.652 107.177 104.028 107.879 116.3V143.107C107.879 148.928 106.826 150.096 104.546 150.336C98.4071 150.981 83.4981 129.797 74.5526 104.811C72.7986 99.8809 71.0446 98.1252 66.4842 98.6045L48.2425 100.522C42.9805 101.075 42.1035 103.636 42.1035 106.282C42.1035 111.044 48.2425 134.384 70.6938 163.771C85.6029 183.897 106.826 193.306 125.945 191.297C137.521 190.08 138.925 187.287 138.925 182.878V166.476C138.925 161.185 139.977 160.192 143.661 159.805C146.292 159.529 151.027 160.442 161.727 169.723C174.005 180.778 176.11 186.201 182.95 185.482L201.017 183.583C206.279 183.03 208.734 180.126 207.331 175.159C205.752 170.21 199.789 163.43 192.071 155.423C187.861 150.927 181.547 146.123 179.618 143.68C176.987 140.429 177.688 138.945 179.618 135.567C179.442 135.586 201.543 101.87 203.823 91.048Z" fill="white"/>
</svg>
