<svg width="48" height="48" viewBox="0 0 48 48" fill="none" xmlns="http://www.w3.org/2000/svg">
<path fill-rule="evenodd" clip-rule="evenodd" d="M13.0958 4.17118C17.2692 1.58422 21.9965 0.20343 26.6799 0.20343C32.9572 0.210644 38.7081 2.6934 42.6711 7.10704C46.634 11.5207 48.4853 17.5048 47.8189 23.7466C47.3163 28.403 45.4363 32.9549 42.4164 36.8265C39.3966 40.6982 35.3726 43.7158 30.8533 45.4977C26.3341 47.2797 21.5225 47.7459 17.0271 46.8375C12.5317 45.929 8.55431 43.6868 5.59797 40.3942C2.64164 37.1016 0.839105 32.9066 0.418311 28.3397C-0.00248188 23.7728 0.977367 19.039 3.23395 14.737C5.49053 10.4351 8.92249 6.75814 13.0958 4.17118ZM28.9029 11.861L27.0946 26.2462C27.0327 26.7122 26.7934 27.1559 26.4263 27.4855C26.0592 27.8151 25.5924 28.0054 25.1224 28.017L16.0334 27.9346C15.5493 27.9449 15.1736 27.7655 14.8603 27.4334C14.5471 27.1014 14.3941 26.6452 14.4349 26.165C14.4757 25.6848 14.707 25.2199 15.0781 24.8724C15.4491 24.5249 16.0016 24.3244 16.4858 24.3129L23.6865 24.4341L25.2666 11.7785C25.33 11.2983 25.5821 10.8424 25.9674 10.5108C26.3526 10.1792 26.8397 9.99906 27.3215 10.01C27.8033 10.0209 28.2405 10.222 28.537 10.5691C28.5401 10.5727 28.5435 10.5767 28.5472 10.581C28.6649 10.7178 29.0803 11.2003 28.9029 11.861Z" fill="#FFE500"/>
</svg>
