<svg width="49" height="45" viewBox="0 0 49 45" fill="none" xmlns="http://www.w3.org/2000/svg">
<path d="M45.0737 0.576447H8.64307C7.67706 0.577395 6.70976 0.959305 5.95347 1.63836C5.19718 2.31742 4.71368 3.23815 4.60908 4.19848L0.699878 40.4188C0.597185 41.3791 0.88194 42.2999 1.49165 42.9789C2.10136 43.658 2.98622 44.0399 3.95202 44.0408H40.3827C41.3487 44.0399 42.316 43.658 43.0723 42.9789C43.8286 42.2999 44.3121 41.3791 44.4167 40.4188L48.3259 4.19848C48.4286 3.23815 48.1438 2.31742 47.5341 1.63836C46.9244 0.959304 46.0395 0.577394 45.0737 0.576447ZM36.2341 18.1843L21.5068 30.8614C21.1335 31.1838 20.6636 31.3637 20.1949 31.3637C19.7263 31.3637 19.2951 31.1838 18.9915 30.8614L12.9978 24.5229C12.8422 24.3588 12.7243 24.1623 12.6509 23.9448C12.5775 23.7272 12.55 23.4927 12.57 23.2548C12.59 23.0169 12.6571 22.7802 12.7675 22.5583C12.8779 22.3364 13.0294 22.1337 13.2133 21.9616C13.3972 21.7895 13.6099 21.6516 13.8393 21.5556C14.0687 21.4597 14.3102 21.4076 14.55 21.4024C14.7899 21.3971 15.0234 21.4389 15.2371 21.5252C15.4508 21.6115 15.6406 21.7407 15.7956 21.9054L20.6607 27.0484L34.0013 15.5668C34.1918 15.4022 34.4095 15.273 34.6419 15.1867C34.8742 15.1003 35.1167 15.0586 35.3554 15.0638C35.5942 15.069 35.8244 15.1211 36.0331 15.2171C36.2418 15.313 36.4247 15.451 36.5715 15.623C36.7183 15.7951 36.826 15.9979 36.8885 16.2198C36.9509 16.4417 36.967 16.6784 36.9356 16.9163C36.9043 17.1542 36.8262 17.3886 36.7058 17.6062C36.5854 17.8238 36.4251 18.0202 36.2341 18.1843H36.2341Z" fill="#A0F386"/>
</svg>
