<svg width="25" height="29" viewBox="0 0 25 29" fill="none" xmlns="http://www.w3.org/2000/svg">
<path d="M12.056 17.5163C15.5493 17.5163 18.7081 14.7034 19.1114 11.2335C19.5148 7.76355 17.0098 4.95062 13.5166 4.95062C10.0233 4.95062 6.86445 7.76355 6.46112 11.2335C6.0578 14.7034 8.5627 17.5163 12.056 17.5163Z" fill="white"/>
<path d="M14.0029 0.762086C11.8323 0.761277 9.63872 1.41154 7.722 2.62401C5.80529 3.83647 4.25894 5.55196 3.29432 7.53602C2.3297 9.52007 1.99387 11.6759 2.33274 13.7088C2.67161 15.7417 3.66864 17.5524 5.18756 18.8936L4.15755 27.755C4.13909 27.9137 4.1627 28.0698 4.22614 28.2083C4.28958 28.3469 4.39075 28.4635 4.52002 28.5469C4.6493 28.6303 4.8024 28.6778 4.96478 28.6849C5.12715 28.6921 5.29342 28.6585 5.44778 28.5876L11.0688 26.0033L16.0909 28.5876C16.2288 28.6586 16.3872 28.692 16.5512 28.6849C16.7153 28.6778 16.8794 28.6302 17.028 28.5468C17.1767 28.4634 17.3049 28.3469 17.4006 28.2083C17.4962 28.0697 17.5561 27.9137 17.5745 27.755L18.6047 18.8925C20.435 17.5511 21.8527 15.7403 22.6638 13.7075C23.4749 11.6747 23.64 9.51903 23.1365 7.53518C22.6329 5.55133 21.4853 3.83605 19.8505 2.62375C18.2157 1.41145 16.1735 0.761275 14.0029 0.762086ZM11.8391 19.3779C10.1332 19.3779 8.52266 18.8866 7.21125 17.9661C5.89983 17.0456 4.94639 15.7373 4.47149 14.2066C3.99659 12.6759 4.02157 10.9915 4.54325 9.3665C5.06494 7.7415 6.05991 6.24883 7.40234 5.07727C8.74478 3.90571 10.3744 3.10787 12.0851 2.78463C13.7958 2.4614 15.5107 2.62729 17.0131 3.26134C18.5154 3.89538 19.7377 4.9691 20.5253 6.34671C21.313 7.72432 21.6306 9.34396 21.438 11.0008C21.1772 13.2218 20.0202 15.3511 18.2207 16.9216C16.4211 18.492 14.1261 19.3754 11.8391 19.3779Z" fill="white"/>
</svg>
